<?xml version="1.0" encoding="UTF-8" standalone="no"?>
<!-- Created with Inkscape (http://www.inkscape.org/) -->

<svg
   width="135.69412mm"
   height="155.34656mm"
   viewBox="0 0 135.69412 155.34656"
   version="1.1"
   id="svg5"
   inkscape:version="1.1.2 (0a00cf5339, 2022-02-04, custom)"
   sodipodi:docname="paper.svg"
   xmlns:inkscape="http://www.inkscape.org/namespaces/inkscape"
   xmlns:sodipodi="http://sodipodi.sourceforge.net/DTD/sodipodi-0.dtd"
   xmlns="http://www.w3.org/2000/svg"
   xmlns:svg="http://www.w3.org/2000/svg">
  <sodipodi:namedview
     id="namedview7"
     pagecolor="#ffffff"
     bordercolor="#666666"
     borderopacity="1.0"
     inkscape:pageshadow="2"
     inkscape:pageopacity="0.0"
     inkscape:pagecheckerboard="0"
     inkscape:document-units="mm"
     showgrid="false"
     inkscape:zoom="0.23117635"
     inkscape:cx="2.162851"
     inkscape:cy="782.95206"
     inkscape:window-width="1366"
     inkscape:window-height="695"
     inkscape:window-x="0"
     inkscape:window-y="0"
     inkscape:window-maximized="1"
     inkscape:current-layer="layer1"
     fit-margin-top="0"
     fit-margin-left="0"
     fit-margin-right="0"
     fit-margin-bottom="0" />
  <defs
     id="defs2" />
  <g
     inkscape:label="Layer 1"
     inkscape:groupmode="layer"
     id="layer1"
     transform="translate(-42.366261,-66.128554)">
    <path
       style="fill:#fcf2b4;stroke-width:2.00536"
       d="m 112.62081,220.77992 c -32.862312,-2.02943 -62.421344,-6.68332 -66.215983,-10.42523 -2.328809,-2.29644 -3.35187,-8.47664 -3.923352,-23.7005 -0.883455,-23.53443 3.361693,-54.49769 11.086593,-80.86335 10.61646,-36.234643 17.68205,-41.134653 56.738972,-39.348283 19.46291,0.89019 56.14713,6.58262 66.49658,10.3186 1.63042,0.58853 0.17918,6.02141 -4.58087,17.15169 -11.19254,26.169723 -15.24757,43.884883 -16.38037,71.559683 -0.75264,18.38853 -0.20951,28.27412 2.07938,37.83615 1.91274,7.99123 2.37974,13.66549 1.22044,14.82968 -3.10571,3.11889 -21.69797,4.17459 -46.52139,2.64156 z"
       id="path125" />
    <path
       style="fill:#ddbd24;stroke-width:2.00536"
       d="m 112.62081,220.77992 c -32.862312,-2.02943 -62.421344,-6.68332 -66.215983,-10.42523 -2.328809,-2.29644 -3.35187,-8.47664 -3.923352,-23.7005 -0.883455,-23.53443 3.361693,-54.49769 11.086593,-80.86335 10.61646,-36.234643 17.68205,-41.134653 56.738972,-39.348283 19.46291,0.89019 56.14713,6.58262 66.49658,10.3186 1.63042,0.58853 0.17918,6.02141 -4.58087,17.15169 -11.19254,26.169723 -15.24757,43.884883 -16.38037,71.559683 -0.75264,18.38853 -0.20951,28.27412 2.07938,37.83615 1.91274,7.99123 2.37974,13.66549 1.22044,14.82968 -3.10571,3.11889 -21.69797,4.17459 -46.52139,2.64156 z m 41.75945,-10.00362 c -2.93563,-14.49381 -3.63183,-53.93394 -1.213,-68.71959 2.69258,-16.45952 9.87427,-39.81281 16.23686,-52.798883 2.20194,-4.49414 4.00352,-8.55685 4.00352,-9.02825 0,-0.47135 -11.58655,-0.44651 -25.7478,0.0564 -26.83898,0.95059 -42.34174,4.83407 -51.473982,12.8944 -3.92549,3.46469 -4.14885,3.45905 -6.33655,-0.16031 -14.20688,-23.50462 -22.24301,-19.55826 -32.57718,15.997823 -4.967785,17.09236 -5.256168,20.38602 -4.658222,53.20333 0.539008,29.58248 1.162232,35.49969 4.037102,38.3303 5.01524,4.93799 61.350542,16.25179 82.150582,16.4983 l 16.88955,0.19982 z M 74.960218,196.85769 c -12.00951,-1.37909 -16.66033,-2.6914 -16.66033,-4.70091 0,-3.31939 -1.96646,-3.33559 24.23321,0.19926 11.66223,1.57351 21.885612,2.88926 22.718632,2.92398 0.83302,0.0339 1.51457,0.95923 1.51457,2.05444 0,2.31783 -8.591492,2.18901 -31.806082,-0.47699 z m 5.55345,-15.80849 c -21.93514,-2.05377 -25.707903,-2.97077 -23.04118,-5.60042 1.14357,-1.12767 12.82009,-0.73931 30.12433,1.00201 15.541312,1.56391 29.392872,2.87001 30.781222,2.90241 1.38839,0.0339 2.52428,0.95505 2.52428,2.05032 0,2.30965 -13.17049,2.1941 -40.388652,-0.35449 z m 0.51433,-14.5033 c -24.35354,-2.34617 -30.301723,-3.84352 -24.29592,-6.11619 5.39303,-2.04072 58.714012,3.80389 59.631852,6.53634 0.97871,2.91369 -0.97065,2.89049 -35.335932,-0.41998 z m -1.52403,-17.32143 c -20.66027,-2.01425 -24.714506,-3.03167 -22.0466,-5.53257 1.37081,-1.28499 37.32553,1.0307 58.901272,3.79362 0.27769,0.0339 0.50483,0.96075 0.50483,2.05602 0,2.29689 -11.55412,2.19884 -37.359522,-0.31724 z m 48.277052,-27.8643 c -1.4623,-2.33313 4.25453,-7.68845 8.14819,-7.6329 1.17608,0.0169 3.50143,0.92993 5.16746,2.02921 2.62193,1.73003 2.50212,2.39522 -0.89083,4.94793 -4.68449,3.52441 -10.43663,3.82799 -12.42482,0.65576 z m -69.234982,-1.49713 c -3.847285,-2.40295 -0.9945,-6.16626 4.67435,-6.16626 4.91785,0 10.12494,4.41354 7.85173,6.65516 -1.88279,1.85665 -9.22987,1.56989 -12.52608,-0.48884 z m 31.39165,-1.5197 c -1.99157,-1.9639 -1.63487,-10.62072 0.43763,-10.62072 0.98114,0 2.2831,1.88244 2.89322,4.18311 1.31849,4.97192 5.42004,3.22439 5.42004,-2.30925 0,-2.12585 0.90874,-3.86519 2.019432,-3.86519 2.829,0 2.52615,8.66066 -0.40391,11.54997 -2.640282,2.60357 -8.223142,3.17556 -10.366422,1.06208 z m -23.56006,-9.43022 c 0,-1.53574 2.95342,-3.82201 6.56316,-5.0807 5.71425,-1.9924 6.10605,-2.54554 3.02915,-4.276483 -3.55213,-1.99827 -4.95748,-7.76431 -1.89239,-7.76431 0.90289,0 4.22595,2.66002 7.38458,5.91111 l 5.74297,5.911063 -9.57144,4.04582 c -11.38228,4.81122 -11.25603,4.79716 -11.25603,1.2535 z m 55.029582,-1.70633 c -4.72044,-2.33837 -8.58261,-4.80613 -8.58261,-5.4839 0,-0.67778 3.71411,-3.290783 8.25357,-5.806693 5.83847,-3.23579 8.88292,-3.9537 10.4044,-2.45341 1.52143,1.50034 0.5836,2.82507 -3.20502,4.52727 -6.66432,2.994313 -6.72678,4.494543 -0.3074,7.378893 2.77672,1.24756 5.04862,3.18363 5.04862,4.30238 0,2.80312 -1.71102,2.43999 -11.61179,-2.46454 z"
       id="path123" />
    <path
       style="fill:#ec2d91;stroke-width:2.00536"
       d="m 95.659418,219.78897 c -23.53623,-2.25105 -46.413885,-6.63303 -49.254591,-9.43428 -2.328809,-2.29644 -3.35187,-8.47664 -3.923352,-23.7005 -0.883455,-23.53443 3.361693,-54.49769 11.086593,-80.86335 10.70122,-36.523943 17.64312,-41.236153 57.787702,-39.226523 25.63634,1.28335 67.40204,9.02486 66.69577,12.36249 -0.22268,1.05174 -3.72417,9.86357 -7.78138,19.58179 -13.94333,33.398513 -18.9655,77.400853 -12.07489,105.795773 4.00266,16.49424 3.08647,17.01672 -29.09633,16.59189 -13.94898,-0.18402 -28.99677,-0.6824 -33.439522,-1.10729 z m 59.586652,-3.54451 c 0.74377,-0.45328 0.0458,-6.90974 -1.54644,-14.34767 -2.03679,-9.50208 -2.58089,-20.62936 -1.82974,-37.41995 1.33178,-29.76876 5.64441,-46.73767 20.82311,-81.933383 1.56121,-3.61999 -20.82855,-5.27234 -38.5348,-2.84388 -8.65039,1.18644 -21.30581,4.39948 -28.12311,7.14005 -11.367892,4.5699 -12.562462,4.70696 -14.414542,1.65372 -1.11069,-1.83108 -4.41387,-6.06138 -7.3404,-9.4007 -4.71317,-5.37801 -5.88893,-5.81639 -10.29313,-3.83759 -12.99349,5.83795 -27.803724,62.283123 -27.803724,105.966253 0,29.86907 -1.239632,28.7633 36.781424,32.80862 16.97828,1.80641 34.050212,3.62371 37.937602,4.03843 7.6579,0.81698 32.14433,-0.48319 34.34375,-1.8239 z M 77.928388,196.54841 c -9.76795,-1.21245 -17.4769,-3.08919 -17.16518,-4.17882 0.31123,-1.08782 1.47458,-1.83113 2.58527,-1.6519 1.11069,0.1795 11.33407,1.39416 22.71863,2.69975 11.38456,1.30554 20.699192,3.16908 20.699192,4.14112 0,2.10372 -5.22808,1.92054 -28.837912,-1.01015 z m 2.58528,-16.22356 c -26.965309,-2.90444 -24.73958,-2.47645 -23.46371,-4.51215 0.55429,-0.88443 12.19445,-0.49674 25.86695,0.86163 13.67251,1.35832 27.358162,2.53002 30.412552,2.60374 3.05439,0.0739 5.55347,1.03018 5.55347,2.12545 0,2.4173 -8.00038,2.1924 -38.369262,-1.07867 z m 4.30358,-14.01338 c -25.55996,-2.49954 -30.529236,-3.52069 -28.21889,-5.79895 0.96613,-0.95273 40.60564,2.08995 53.701952,4.12209 6.04667,0.93823 9.76075,5.13969 4.03887,4.56883 -1.38836,-0.1383 -14.673232,-1.43989 -29.521932,-2.89197 z m -4.30358,-17.56066 c -13.4106,-1.26828 -22.79684,-2.99854 -22.21378,-4.09488 1.06812,-2.00838 4.34072,-1.91016 33.32066,1.00004 9.996202,1.00382 19.765202,1.84067 21.708912,1.85969 1.94371,0.0169 3.53401,0.93061 3.53401,2.02588 0,2.30694 -4.66982,2.20533 -36.349802,-0.79073 z m 47.267352,-27.39064 c -1.4623,-2.33313 4.25453,-7.68845 8.14819,-7.6329 1.17608,0.0169 3.50143,0.92993 5.16746,2.02921 2.62188,1.73003 2.50212,2.39522 -0.89083,4.94793 -4.68449,3.52441 -10.43663,3.82799 -12.42482,0.65576 z m -69.234982,-1.49713 c -3.847285,-2.40295 -0.9945,-6.16626 4.67435,-6.16626 4.91785,0 10.12494,4.41354 7.85173,6.65516 -1.88279,1.85665 -9.22987,1.56989 -12.52608,-0.48884 z m 32.46868,-2.58178 c -2.81051,-2.77145 -3.26453,-9.55864 -0.63942,-9.55864 0.98115,0 2.2831,1.88244 2.89323,4.18311 1.31849,4.97192 5.42004,3.22439 5.42004,-2.30925 0,-2.12585 0.90874,-3.86519 2.019432,-3.86519 1.11069,0 2.01944,2.06104 2.01944,4.58017 0,4.86828 -3.391612,9.35943 -7.068022,9.35943 -1.22176,0 -3.31187,-1.07534 -4.6447,-2.38963 z m 31.402212,-9.69417 c -4.16511,-2.1683 -7.57289,-4.72852 -7.57289,-5.68944 0,-1.53963 12.93618,-10.106023 15.26119,-10.106023 2.98549,0 0.0778,4.43498 -4.1543,6.33645 -6.55338,2.944463 -6.36511,4.248653 1.00973,6.993623 3.33204,1.24023 6.05828,3.22897 6.05828,4.41935 0,2.96219 -1.79328,2.63168 -10.60201,-1.95396 z m -53.129032,-0.92344 c 2.15599,-1.60811 5.10941,-2.92375 6.56316,-2.92375 3.62342,0 3.34105,-3.843693 -0.386,-5.253993 -3.33217,-1.26089 -4.15359,-4.70289 -1.12233,-4.70289 1.04876,0 4.4343,2.14385 7.52343,4.76408 l 5.61661,4.764083 -7.77005,3.20141 c -4.27353,1.7608 -9.24937,3.17291 -11.05744,3.13808 -2.76235,-0.0508 -2.66132,-0.53005 0.6326,-2.98702 z M 107.84601,81.620407 c 6.62564,-2.3084 17.3228,-4.67771 23.77149,-5.26511 20.34896,-1.85366 9.56034,-4.94613 -21.04117,-6.03135 l -28.767422,-1.02019 6.92526,8.22098 c 3.80888,4.52152 6.95674,8.23712 6.99524,8.25688 0.0383,0.0169 5.490962,-1.85281 12.116602,-4.16121 z"
       id="path121" />
    <path
       style="fill:#2b2b30;stroke-width:2.00536"
       d="m 95.659418,219.78897 c -23.53623,-2.25105 -46.413885,-6.63303 -49.254591,-9.43428 -2.328809,-2.29644 -3.35187,-8.47664 -3.923352,-23.7005 -0.883455,-23.53443 3.361693,-54.49769 11.086593,-80.86335 10.70122,-36.523943 17.64312,-41.236153 57.787702,-39.226523 25.63634,1.28335 67.40204,9.02486 66.69577,12.36249 -0.22268,1.05174 -3.72417,9.86357 -7.78138,19.58179 -13.94333,33.398513 -18.9655,77.400853 -12.07489,105.795773 4.00266,16.49424 3.08647,17.01672 -29.09633,16.59189 -13.94898,-0.18402 -28.99677,-0.6824 -33.439522,-1.10729 z m 59.586652,-3.54451 c 0.74377,-0.45328 0.0458,-6.90974 -1.54644,-14.34767 -2.03679,-9.50208 -2.58089,-20.62936 -1.82974,-37.41995 1.33178,-29.76876 5.64441,-46.73767 20.82311,-81.933383 1.56121,-3.61999 -20.82855,-5.27234 -38.5348,-2.84388 -8.65039,1.18644 -21.30581,4.39948 -28.12311,7.14005 -11.367892,4.5699 -12.562462,4.70696 -14.414542,1.65372 -1.11069,-1.83108 -4.41387,-6.06138 -7.3404,-9.4007 -4.71317,-5.37801 -5.88893,-5.81639 -10.29313,-3.83759 -12.99349,5.83795 -27.803724,62.283123 -27.803724,105.966253 0,29.86907 -1.239632,28.7633 36.781424,32.80862 16.97828,1.80641 34.050212,3.62371 37.937602,4.03843 7.6579,0.81698 32.14433,-0.48319 34.34375,-1.8239 z M 77.928388,196.54841 c -9.76795,-1.21245 -17.4769,-3.08919 -17.16518,-4.17882 0.31123,-1.08782 1.47458,-1.83113 2.58527,-1.6519 1.11069,0.1795 11.33407,1.39416 22.71863,2.69975 11.38456,1.30554 20.699192,3.16908 20.699192,4.14112 0,2.10372 -5.22808,1.92054 -28.837912,-1.01015 z m 2.58528,-16.22356 c -26.965309,-2.90444 -24.73958,-2.47645 -23.46371,-4.51215 0.55429,-0.88443 12.19445,-0.49674 25.86695,0.86163 13.67251,1.35832 27.358162,2.53002 30.412552,2.60374 3.05439,0.0739 5.55347,1.03018 5.55347,2.12545 0,2.4173 -8.00038,2.1924 -38.369262,-1.07867 z m 4.30358,-14.01338 c -25.55996,-2.49954 -30.529236,-3.52069 -28.21889,-5.79895 0.96613,-0.95273 40.60564,2.08995 53.701952,4.12209 6.04667,0.93823 9.76075,5.13969 4.03887,4.56883 -1.38836,-0.1383 -14.673232,-1.43989 -29.521932,-2.89197 z m -4.30358,-17.56066 c -13.4106,-1.26828 -22.79684,-2.99854 -22.21378,-4.09488 1.06812,-2.00838 4.34072,-1.91016 33.32066,1.00004 9.996202,1.00382 19.765202,1.84067 21.708912,1.85969 1.94371,0.0169 3.53401,0.93061 3.53401,2.02588 0,2.30694 -4.66982,2.20533 -36.349802,-0.79073 z m 10.50105,-31.46955 c -2.81051,-2.77145 -3.26453,-9.55864 -0.63942,-9.55864 0.98115,0 2.2831,1.88244 2.89323,4.18311 1.31849,4.97192 5.42004,3.22439 5.42004,-2.30925 0,-2.12585 0.90874,-3.86519 2.019432,-3.86519 1.11069,0 2.01944,2.06104 2.01944,4.58017 0,4.86828 -3.391612,9.35943 -7.068022,9.35943 -1.22176,0 -3.31187,-1.07534 -4.6447,-2.38963 z m 31.402212,-9.69417 c -4.16511,-2.1683 -7.57289,-4.72852 -7.57289,-5.68944 0,-1.53963 12.93618,-10.106023 15.26119,-10.106023 2.98549,0 0.0778,4.43498 -4.1543,6.33645 -6.55338,2.944463 -6.36511,4.248653 1.00973,6.993623 3.33204,1.24023 6.05828,3.22897 6.05828,4.41935 0,2.96219 -1.79328,2.63168 -10.60201,-1.95396 z m -53.129032,-0.92344 c 2.15599,-1.60811 5.10941,-2.92375 6.56316,-2.92375 3.62342,0 3.34105,-3.843693 -0.386,-5.253993 -3.33217,-1.26089 -4.15359,-4.70289 -1.12233,-4.70289 1.04876,0 4.4343,2.14385 7.52343,4.76408 l 5.61661,4.764083 -7.77005,3.20141 c -4.27353,1.7608 -9.24937,3.17291 -11.05744,3.13808 -2.76235,-0.0508 -2.66132,-0.53005 0.6326,-2.98702 z M 107.84601,81.620407 c 6.62564,-2.3084 17.3228,-4.67771 23.77149,-5.26511 20.34896,-1.85366 9.56034,-4.94613 -21.04117,-6.03135 l -28.767422,-1.02019 6.92526,8.22098 c 3.80888,4.52152 6.95674,8.23712 6.99524,8.25688 0.0383,0.0169 5.490962,-1.85281 12.116602,-4.16121 z"
       id="path119" />
  </g>
</svg>
