<?xml version="1.0" encoding="UTF-8" standalone="no"?>
<!-- Created with Inkscape (http://www.inkscape.org/) -->

<svg
   width="154.04985mm"
   height="173.03838mm"
   viewBox="0 0 154.04985 173.03838"
   version="1.1"
   id="svg5"
   inkscape:version="1.1.2 (0a00cf5339, 2022-02-04, custom)"
   sodipodi:docname="rock.svg"
   xmlns:inkscape="http://www.inkscape.org/namespaces/inkscape"
   xmlns:sodipodi="http://sodipodi.sourceforge.net/DTD/sodipodi-0.dtd"
   xmlns="http://www.w3.org/2000/svg"
   xmlns:svg="http://www.w3.org/2000/svg">
  <sodipodi:namedview
     id="namedview7"
     pagecolor="#ffffff"
     bordercolor="#666666"
     borderopacity="1.0"
     inkscape:pageshadow="2"
     inkscape:pageopacity="0.0"
     inkscape:pagecheckerboard="0"
     inkscape:document-units="mm"
     showgrid="false"
     inkscape:zoom="0.28241481"
     inkscape:cx="607.26277"
     inkscape:cy="120.39029"
     inkscape:window-width="1366"
     inkscape:window-height="695"
     inkscape:window-x="0"
     inkscape:window-y="0"
     inkscape:window-maximized="1"
     inkscape:current-layer="layer1"
     fit-margin-top="0"
     fit-margin-left="0"
     fit-margin-right="0"
     fit-margin-bottom="0" />
  <defs
     id="defs2" />
  <g
     inkscape:label="Layer 1"
     inkscape:groupmode="layer"
     id="layer1"
     style="display:inline"
     transform="translate(-30.938075,-61.05168)">
    <path
       style="fill:#cbcbcb;stroke-width:2.04346"
       d="M 91.416168,230.75735 C 77.664353,229.11244 63.739081,227.67311 60.47113,227.55892 49.097732,227.16192 45.635739,219.28184 37.082587,174.32471 27.322702,123.02478 26.78986,125.55389 53.930358,94.357741 72.233771,73.319195 75.565236,70.462545 86.993785,66.006776 L 99.702888,61.05168 124.1337,68.27721 c 14.54579,4.301941 25.67214,8.855335 27.49886,11.253617 1.6875,2.21549 9.92572,20.329453 18.30711,40.253363 19.28833,45.85107 19.30023,46.08158 4.07681,79.13486 -6.46638,14.03982 -13.04055,25.47821 -15.6271,27.18934 -4.84976,3.20851 -29.32082,8.44687 -37.13146,7.94854 -2.66112,-0.16967 -16.08991,-1.65459 -29.841752,-3.29958 z M 47.88817,111.03151 c 2.221493,-3.70837 2.158323,-3.79101 -0.674295,-0.88273 -1.718981,1.76487 -3.125415,3.6061 -3.125415,4.09164 0,1.92427 1.466598,0.68577 3.79971,-3.20891 z m 15.065134,-17.535629 5.245506,-7.598799 -5.804345,6.867173 c -3.192387,3.776965 -5.804345,7.196367 -5.804345,7.598795 0,1.8063 1.47364,0.21606 6.363184,-6.867169 z"
       id="path207" />
    <path
       style="fill:#b0b0b0;stroke-width:2.04346"
       d="M 91.416168,230.75735 C 77.664353,229.11244 63.739081,227.67311 60.47113,227.55892 49.097732,227.16192 45.635739,219.28184 37.082587,174.32471 27.322702,123.02478 26.78986,125.55389 53.930358,94.357741 72.233771,73.319195 75.565236,70.462545 86.993785,66.006776 L 99.702888,61.05168 124.1337,68.27721 c 14.54579,4.301941 25.67214,8.855335 27.49886,11.253617 1.6875,2.21549 9.92572,20.329453 18.30711,40.253363 19.4112,46.14308 19.41464,46.21824 3.62721,79.89532 -12.8824,27.48016 -13.73827,28.28495 -34.27209,32.2229 -14.75907,2.83054 -14.61434,2.83398 -47.878622,-1.14506 z m 28.153302,-5.05186 c -2.19659,-0.55473 -6.21498,-0.56931 -8.92972,-0.0331 -2.71479,0.53751 -0.91753,0.99143 3.99379,1.009 4.91137,0.0199 7.13256,-0.42218 4.93593,-0.97712 z m 15.80418,-4.7839 c 2.44303,-3.53632 5.20536,-8.0575 6.13849,-10.04705 0.93317,-1.98949 0.25717,-1.46346 -1.50262,1.16905 -1.75958,2.6325 -5.22003,7.15368 -7.68989,10.04705 -2.46982,2.89343 -3.79245,5.2607 -2.93921,5.2607 0.85329,0 3.55025,-2.89337 5.99323,-6.42975 z m -38.132321,2.48524 c -1.707493,-0.58523 -4.922207,-0.60643 -7.143801,-0.0464 -2.221544,0.55938 -0.824486,1.03802 3.104603,1.064 3.929088,0.0265 5.746743,-0.43146 4.039198,-1.01681 z m -22.345198,-2.38172 c -2.210118,-0.55738 -5.826671,-0.55738 -8.036789,0 -2.210113,0.55739 -0.401814,1.01324 4.018392,1.01324 4.420236,0 6.228509,-0.45598 4.018397,-1.01324 z m -16.668886,-1.29743 c -0.409256,-0.33535 -2.552422,-2.60254 -4.76254,-5.0386 -2.210118,-2.43599 -4.018391,-3.81507 -4.018391,-3.06469 0,2.35639 5.521941,8.71271 7.569035,8.71271 1.07582,0 1.621177,-0.27439 1.211896,-0.60908 z m -9.346873,-16.19559 c -0.570123,-1.86515 -0.993316,-1.31114 -1.079014,1.41262 -0.07756,2.46469 0.344556,3.84563 0.938017,3.06874 0.593457,-0.77696 0.656906,-2.79356 0.140997,-4.48136 z m 96.484508,-11.80934 c -0.42728,-2.90835 -0.79289,-1.07938 -0.81274,4.06441 -0.0203,5.14378 0.32957,7.52337 0.7767,5.288 0.44702,-2.23544 0.46322,-6.444 0.0354,-9.35241 z m -98.270461,2.457 c -0.570123,-1.86515 -0.993316,-1.31115 -1.079014,1.41262 -0.07756,2.46469 0.344556,3.84563 0.938018,3.06873 0.593456,-0.77696 0.656905,-2.79355 0.140996,-4.48135 z m 74.368941,-1.12259 c 3.1202,-2.11236 6.50815,-7.63856 8.74934,-14.27152 3.12409,-9.24596 3.49831,-13.73905 2.56645,-30.81366 -1.14039,-20.89473 -5.03976,-42.01738 -9.40924,-50.969012 -1.98841,-4.073552 -2.05483,-5.2941 -0.29413,-5.408891 3.73899,-0.243898 -4.26858,-3.803675 -23.468928,-10.43371 C 89.64119,77.719159 79.703069,75.523087 77.522126,76.28023 75.341179,77.037372 65.118142,88.304907 54.804269,101.31929 44.4904,114.33361 37.259832,123.90234 38.736342,122.58324 c 2.295295,-2.05073 2.737554,-0.10405 3.050024,13.42391 0.47355,20.5021 5.979594,39.82833 13.960705,49.00225 7.686663,8.83546 15.484641,10.8439 43.681934,11.25057 11.751325,0.16967 18.502675,-0.81182 22.034455,-3.20281 z M 104.81084,139.6731 c -2.71569,-4.28385 0.42627,-10.52139 5.29972,-10.52139 4.72356,0 9.4543,7.80651 6.82036,11.25474 -2.94792,3.85928 -9.45835,3.46533 -12.12008,-0.73335 z m -30.977377,-7.78292 c -3.714953,-5.37403 -3.888659,-14.42892 -0.27682,-14.42892 1.502091,0 2.67893,2.08645 2.67893,4.74957 0,6.37428 4.737434,8.40068 8.690418,3.71732 3.895068,-4.61477 5.597195,-4.81121 5.597195,-0.6462 0,4.52543 -5.91973,10.8838 -10.133029,10.8838 -1.980552,0 -4.931062,-1.92408 -6.556714,-4.27576 z m 24.399213,-4.18111 c -2.012461,-6.86572 1.769914,-16.09306 6.596694,-16.09306 5.48481,0 6.71045,6.26458 2.76709,14.14353 -3.28448,6.56237 -7.739772,7.48998 -9.363784,1.94953 z m -50.572315,-6.74072 c -1.773783,-2.798 -1.773783,-4.21618 0,-7.01424 2.952124,-4.65679 5.95538,-4.42548 9.52155,0.73335 2.261189,3.27107 2.446964,4.87463 0.812589,7.01424 -2.913336,3.81401 -7.665153,3.4768 -10.334139,-0.73335 z m 11.906346,-7.40395 c -2.378822,-3.1142 -1.107917,-11.84301 2.314751,-15.898071 7.419613,-8.790516 12.592199,3.396871 5.424375,12.780621 -3.746331,4.90453 -5.755774,5.71397 -7.739126,3.11745 z m -14.258241,71.26301 c -0.570123,-1.86522 -0.993316,-1.31115 -1.079014,1.41255 -0.07756,2.46476 0.344556,3.84569 0.938018,3.06873 0.593456,-0.77689 0.656905,-2.79348 0.140996,-4.48128 z m 98.227374,-7.01431 c -0.57015,-1.86515 -0.99332,-1.31115 -1.07903,1.41262 -0.0775,2.46476 0.34476,3.84569 0.93803,3.06873 0.59344,-0.77689 0.65687,-2.79348 0.14125,-4.48135 z M 43.522513,175.47507 c -0.570123,-1.86522 -0.993316,-1.31115 -1.079009,1.41255 -0.07756,2.46475 0.344556,3.84569 0.938018,3.06873 0.593451,-0.77689 0.656905,-2.79349 0.140991,-4.48128 z m -1.785953,-9.35235 c -0.570118,-1.86522 -0.993316,-1.31114 -1.079009,1.41255 -0.07756,2.46476 0.344556,3.8457 0.938018,3.06874 0.593456,-0.77689 0.656905,-2.79349 0.140991,-4.48129 z m 99.9761,-2.48424 c -0.49562,-1.60747 -0.90083,-0.29228 -0.90083,2.9226 0,3.21487 0.40551,4.53006 0.90083,2.92259 0.49563,-1.6074 0.49563,-4.23778 0,-5.84519 z M 39.950613,156.77032 c -0.570123,-1.86516 -0.993316,-1.31115 -1.079015,1.41261 -0.07756,2.46476 0.344556,3.8457 0.938018,3.06874 0.593456,-0.7769 0.656905,-2.79349 0.140997,-4.48135 z m 99.976087,-7.16039 c -0.49562,-1.6074 -0.90078,-0.29227 -0.90078,2.9226 0,3.21487 0.40551,4.53006 0.90078,2.92266 0.49562,-1.60747 0.49562,-4.23778 0,-5.84526 z M 38.16466,147.41797 c -0.570123,-1.86515 -0.993316,-1.31115 -1.079015,1.41262 -0.07756,2.46476 0.344556,3.84569 0.938018,3.06873 0.593456,-0.77689 0.656905,-2.79355 0.140997,-4.48135 z m -1.742826,-16.48548 c -0.427177,-2.90835 -0.792925,-1.07938 -0.81275,4.06441 -0.01974,5.14378 0.329673,7.52337 0.776705,5.28793 0.447023,-2.23537 0.463223,-6.44393 0.03594,-9.35234 z m 101.718906,4.64896 c -0.49563,-1.60747 -0.90078,-0.29228 -0.90078,2.9226 0,3.21487 0.40551,4.53 0.90078,2.92259 0.49562,-1.6074 0.49562,-4.23778 0,-5.84519 z m -1.78592,-14.02854 c -0.49562,-1.60747 -0.90082,-0.29228 -0.90082,2.92259 0,3.21488 0.40551,4.53007 0.90082,2.9226 0.49563,-1.60741 0.49563,-4.23779 0,-5.84519 z m -1.78596,-14.02855 c -0.49562,-1.6074 -0.90083,-0.29228 -0.90083,2.92259 0,3.21488 0.40551,4.53007 0.90083,2.92267 0.49562,-1.60747 0.49562,-4.23779 0,-5.84526 z m -2.88691,-10.905663 c -1.0964,-2.682011 -2.82627,-4.876426 -3.84414,-4.876426 -1.01788,0 -0.58776,1.6534 0.95581,3.67417 1.54357,2.020771 2.80647,4.826449 2.80647,6.234889 0,1.40838 0.46676,1.94946 1.03767,1.20226 0.57075,-0.74713 0.14073,-3.552816 -0.95581,-6.234893 z"
       id="path205" />
    <path
       style="fill:#eb3492;stroke-width:2.04346"
       d="M 91.416168,230.75735 C 77.664353,229.11244 63.739081,227.67311 60.47113,227.55892 49.097732,227.16192 45.635739,219.28184 37.082587,174.32471 27.322702,123.02478 26.78986,125.55389 53.930358,94.357741 72.233771,73.319195 75.565236,70.462545 86.993785,66.006776 L 99.702888,61.05168 124.1337,68.27721 c 14.54579,4.301941 25.67214,8.855335 27.49886,11.253617 1.6875,2.21549 9.92572,20.329453 18.30711,40.253363 19.4112,46.14308 19.41464,46.21824 3.62721,79.89532 -12.8824,27.48016 -13.73827,28.28495 -34.27209,32.2229 -14.75907,2.83054 -14.61434,2.83398 -47.878622,-1.14506 z m 44.023702,-9.83576 c 12.78378,-15.1019 12.8466,-15.96548 5.27836,-72.57966 -5.16157,-38.61076 -7.42305,-50.690712 -10.11541,-54.032107 -3.73145,-4.631004 -41.24093,-18.940299 -49.638774,-18.936455 -6.582578,0.003 -42.789145,41.118072 -45.641183,51.828752 -1.562254,5.86692 -0.616445,13.69842 5.550165,45.95652 5.229108,27.3539 8.559227,40.35834 11.230218,43.85509 3.347038,4.3818 7.276177,5.31073 33.163605,7.84091 16.151689,1.57864 30.170369,3.22919 31.152649,3.66794 6.34767,2.83524 12.14843,0.51695 19.02037,-7.60099 z m -30.71448,-81.3833 c -2.11776,-3.3406 -2.01044,-4.30744 0.77376,-6.97268 4.17841,-3.99992 10.92035,-0.89009 10.92035,5.03721 0,5.85831 -8.33294,7.23753 -11.69411,1.93547 z m -30.27575,-8.04855 c -3.86932,-5.06551 -4.630529,-10.55791 -1.782607,-12.86215 0.984113,-0.79624 2.571578,1.24594 3.5277,4.53816 1.921062,6.61485 7.94869,8.16857 9.616443,2.4788 1.312514,-4.47764 4.71201,-4.57327 4.71201,-0.13255 0,3.73084 -6.641193,10.65395 -10.220105,10.65395 -1.254842,0 -3.888892,-2.10428 -5.853441,-4.67621 z m 24.87133,-3.71533 c -1.659349,-2.61752 -1.694179,-4.83062 -0.145801,-9.27897 4.280281,-12.29847 12.277831,-8.89238 8.900561,3.79062 -2.08704,7.83786 -5.79246,10.16085 -8.754557,5.48835 z m -50.699132,-6.45135 c -4.129306,-3.95286 -2.161193,-8.538 3.664855,-8.538 5.054557,0 7.841212,6.46547 4.117182,9.55256 -3.318278,2.75067 -3.93243,2.67061 -7.782037,-1.01456 z m 11.986674,-7.78338 c -3.264103,-1.67308 -2.726917,-8.78946 1.134769,-15.032832 2.886726,-4.667058 3.77868,-4.996784 6.25083,-2.310796 1.585993,1.723189 2.883623,3.997728 2.883623,5.054508 0,3.75383 -8.073021,13.41483 -10.269222,12.28912 z"
       id="path203" />
    <path
       style="fill:#636363;stroke-width:2.04346"
       d="M 91.416168,230.75735 C 77.664353,229.11244 63.739081,227.67311 60.47113,227.55892 49.097732,227.16192 45.635739,219.28184 37.082587,174.32471 27.322702,123.02478 26.78986,125.55389 53.930358,94.357741 72.233771,73.319195 75.565236,70.462545 86.993785,66.006776 L 99.702888,61.05168 124.1337,68.27721 c 14.54579,4.301941 25.67214,8.855335 27.49886,11.253617 1.6875,2.21549 9.92572,20.329453 18.30711,40.253363 19.4112,46.14308 19.41464,46.21824 3.62721,79.89532 -12.8824,27.48016 -13.73827,28.28495 -34.27209,32.2229 -14.75907,2.83054 -14.61434,2.83398 -47.878622,-1.14506 z m 44.023702,-9.83576 c 12.78378,-15.1019 12.8466,-15.96548 5.27836,-72.57966 -5.16157,-38.61076 -7.42305,-50.690712 -10.11541,-54.032107 -3.73145,-4.631004 -41.24093,-18.940299 -49.638774,-18.936455 -6.582578,0.003 -42.789145,41.118072 -45.641183,51.828752 -1.562254,5.86692 -0.616445,13.69842 5.550165,45.95652 5.229108,27.3539 8.559227,40.35834 11.230218,43.85509 3.347038,4.3818 7.276177,5.31073 33.163605,7.84091 16.151689,1.57864 30.170369,3.22919 31.152649,3.66794 6.34767,2.83524 12.14843,0.51695 19.02037,-7.60099 z M 74.44964,131.48974 c -3.86932,-5.06551 -4.630529,-10.55791 -1.782607,-12.86215 0.984113,-0.79624 2.571578,1.24594 3.5277,4.53816 1.921062,6.61485 7.94869,8.16857 9.616443,2.4788 1.312514,-4.47764 4.71201,-4.57327 4.71201,-0.13255 0,3.73084 -6.641193,10.65395 -10.220105,10.65395 -1.254842,0 -3.888892,-2.10428 -5.853441,-4.67621 z m 24.87133,-3.71533 c -1.659349,-2.61752 -1.694179,-4.83062 -0.145801,-9.27897 4.280281,-12.29847 12.277831,-8.89238 8.900561,3.79062 -2.08704,7.83786 -5.79246,10.16085 -8.754557,5.48835 z M 60.608512,113.53968 c -3.264103,-1.67308 -2.726917,-8.78946 1.134769,-15.032832 2.886726,-4.667058 3.77868,-4.996784 6.25083,-2.310796 1.585993,1.723189 2.883623,3.997728 2.883623,5.054508 0,3.75383 -8.073021,13.41483 -10.269222,12.28912 z"
       id="path201" />
    <path
       style="fill:#1f2824;stroke-width:2.04346"
       d="m 114.63354,233.19871 c -0.98224,-0.43875 -15.028409,-2.09208 -31.213655,-3.67423 -38.241789,-3.73806 -36.049856,-1.1269 -46.337298,-55.19977 -8.658726,-45.51201 -8.439118,-51.2951 2.402383,-63.2647 3.21728,-3.55202 12.272712,-13.932972 20.123184,-23.068723 12.144215,-14.132469 16.206235,-17.379023 27.22849,-21.761954 l 12.95494,-5.151407 24.386416,7.212341 c 14.5139,4.292596 25.62855,8.84314 27.45456,11.24056 1.6875,2.21549 9.92572,20.329453 18.30711,40.253363 19.4112,46.14308 19.41464,46.21824 3.62721,79.89532 -8.18314,17.45597 -13.06105,25.50651 -16.52003,27.26476 -9.19322,4.67309 -36.82958,8.74843 -42.41331,6.25444 z m 23.82239,-13.89248 c 4.02092,-5.71071 7.81687,-13.02306 8.43541,-16.2496 1.20721,-6.29687 -8.85854,-91.74371 -12.10145,-102.72764 -2.76075,-9.350821 -6.44608,-11.643855 -32.89876,-20.469498 L 78.432963,72.0329 l -8.01425,8.597321 c -4.407837,4.728563 -14.549741,16.791151 -22.53757,26.805859 -11.419522,14.31711 -14.521725,19.60797 -14.515858,24.75712 0.0081,7.04075 11.331824,68.69181 14.595856,79.46545 1.086285,3.5855 3.673112,7.72791 5.748505,9.20541 3.950539,2.81244 42.887576,7.92236 64.714824,8.49287 l 12.7207,0.33271 z M 74.806832,131.02216 c -1.178731,-1.54311 -2.063035,-5.48869 -1.965121,-8.76785 l 0.177999,-5.9621 1.20206,5.62396 c 1.825091,8.53886 6.43579,11.40718 10.533107,6.55269 4.677585,-5.54178 7.032527,-5.02131 3.089415,0.68285 -3.619109,5.23531 -9.790872,6.12076 -13.037485,1.87045 z m 24.646119,-7.37724 c 0,-7.36722 5.039809,-14.54954 7.734199,-11.02217 2.64659,3.4648 -0.71265,15.10156 -4.64569,16.09312 -2.26286,0.57064 -3.088509,-0.78504 -3.088509,-5.07095 z M 59.483367,110.90095 c -1.470561,-3.115 3.222667,-13.2154 6.527858,-14.048695 3.514613,-0.886116 4.08784,4.423885 1.231772,11.410355 -1.881559,4.60264 -6.14757,6.0531 -7.75963,2.63834 z m 97.385323,111.58821 c 1.61931,-1.13445 7.34894,-11.28901 12.7325,-22.56562 12.13865,-25.42618 13.79152,-29.62195 13.79152,-35.0097 0,-5.4075 -31.40881,-80.132523 -35.21199,-83.77329 -4.96362,-4.751494 -46.31243,-15.483714 -53.168275,-13.799893 -3.451337,0.84761 -6.270565,2.213171 -6.264844,3.034536 0.0051,0.821364 9.046153,4.460673 20.089989,8.087323 19.20282,6.306076 24.83682,9.923778 28.17612,18.092357 0.83097,2.0327 4.39687,25.830197 7.92425,52.883337 7.11525,54.57048 7.02959,56.47248 -3.17816,70.59355 l -5.69481,7.87796 8.92977,-1.67899 c 4.91137,-0.92343 10.25463,-2.60718 11.87393,-3.74157 z"
       id="path199" />
  </g>
</svg>
