<?xml version="1.0" encoding="UTF-8" standalone="no"?>
<!-- Created with Inkscape (http://www.inkscape.org/) -->

<svg
   width="177.62282mm"
   height="187.60492mm"
   viewBox="0 0 177.62282 187.60492"
   version="1.1"
   id="svg5"
   inkscape:version="1.1.2 (0a00cf5339, 2022-02-04, custom)"
   sodipodi:docname="scissors.svg"
   xmlns:inkscape="http://www.inkscape.org/namespaces/inkscape"
   xmlns:sodipodi="http://sodipodi.sourceforge.net/DTD/sodipodi-0.dtd"
   xmlns="http://www.w3.org/2000/svg"
   xmlns:svg="http://www.w3.org/2000/svg">
  <sodipodi:namedview
     id="namedview7"
     pagecolor="#ffffff"
     bordercolor="#666666"
     borderopacity="1.0"
     inkscape:pageshadow="2"
     inkscape:pageopacity="0.0"
     inkscape:pagecheckerboard="0"
     inkscape:document-units="mm"
     showgrid="false"
     inkscape:zoom="0.32693273"
     inkscape:cx="-120.81996"
     inkscape:cy="272.22726"
     inkscape:window-width="1366"
     inkscape:window-height="695"
     inkscape:window-x="0"
     inkscape:window-y="0"
     inkscape:window-maximized="1"
     inkscape:current-layer="layer1"
     fit-margin-top="0"
     fit-margin-left="0"
     fit-margin-right="0"
     fit-margin-bottom="0" />
  <defs
     id="defs2" />
  <g
     inkscape:label="Layer 1"
     inkscape:groupmode="layer"
     id="layer1"
     transform="translate(-18.351519,-50.634092)">
    <path
       style="fill:#cbcccb;stroke-width:2.55479"
       d="m 56.658369,234.02408 c -24.633867,-8.81912 -37.626348,-31.02266 -35.224716,-60.19742 0.726983,-8.83115 3.41542,-19.23527 5.974332,-23.12021 4.370035,-6.63453 4.291659,-7.80524 -1.290648,-19.27881 -3.359142,-6.90417 -6.599252,-20.24215 -7.452079,-30.67662 -1.666107,-20.385213 3.569781,-48.151781 9.413164,-49.919053 6.395652,-1.934368 33.573236,10.641951 50.505548,23.371147 8.99886,6.765108 20.388218,18.254491 25.30969,25.53202 7.3469,10.864076 10.58999,13.490666 18.12334,14.678156 21.63568,3.4104 50.83218,23.60826 64.21508,44.42333 14.8489,23.09514 12.43114,41.42247 -7.3198,55.48612 -9.50291,6.76652 -13.49062,8.08793 -24.40756,8.08793 -11.6941,0 -14.36359,-1.06616 -25.71205,-10.26918 l -12.66315,-10.26924 0.1531,8.74641 c 0.2001,11.42632 -5.05509,17.7075 -19.406102,23.19492 -14.480021,5.53674 -25.184322,5.59274 -40.218182,0.21024 z m 9.605009,-113.57457 c -1.931948,-2.43815 -4.069926,-3.99378 -4.751073,-3.45693 -1.233376,0.9721 5.038145,7.89002 7.152793,7.89002 0.610987,0 -0.469782,-1.99493 -2.40172,-4.43309 z M 75.26488,78.17838 c -3.837089,-3.233208 -9.56649,-6.936 -12.731992,-8.2284 -3.165511,-1.292478 -0.575583,1.310401 5.755463,5.784067 13.567093,9.586907 16.795832,10.7182 6.976529,2.444333 z"
       id="path1281" />
    <path
       style="fill:#48f1fc;stroke-width:2.55479"
       d="m 56.658369,234.02408 c -24.633867,-8.81912 -37.626348,-31.02266 -35.224716,-60.19742 0.726983,-8.83115 3.41542,-19.23527 5.974332,-23.12021 4.370035,-6.63453 4.291659,-7.80524 -1.290648,-19.27881 -3.359142,-6.90417 -6.599252,-20.24215 -7.452079,-30.67662 -1.666107,-20.385213 3.569781,-48.151781 9.413164,-49.919053 6.395652,-1.934368 33.573236,10.641951 50.505548,23.371147 8.99886,6.765108 20.388218,18.254491 25.30969,25.53202 7.3469,10.864076 10.58999,13.490666 18.12334,14.678156 21.63568,3.4104 50.83218,23.60826 64.21508,44.42333 14.8489,23.09514 12.43114,41.42247 -7.3198,55.48612 -9.50291,6.76652 -13.49062,8.08793 -24.40756,8.08793 -11.6941,0 -14.36359,-1.06616 -25.71205,-10.26918 l -12.66315,-10.26924 0.1531,8.74641 c 0.2001,11.42632 -5.05509,17.7075 -19.406102,23.19492 -14.480021,5.53674 -25.184322,5.59274 -40.218182,0.21024 z m 15.946586,-94.04734 c 0,-0.43076 -2.891392,-2.72684 -6.425313,-5.10321 -4.804348,-3.2307 -5.474532,-3.3508 -2.656549,-0.47641 3.418772,3.4876 2.345174,3.92255 -11.560522,4.6837 l -15.329285,0.83902 17.985833,0.41983 c 9.892205,0.23082 17.985836,0.0675 17.985836,-0.36261 z m 21.509753,-19.63036 10.809202,-10.20642 -12.977352,10.72791 c -11.074067,9.15447 -13.495724,10.23561 -16.511841,7.37132 -2.382781,-2.26284 -2.503583,-3.35659 -0.370752,-3.35659 5.259284,0 12.796867,-11.10568 14.879913,-21.92366 C 91.837657,93.123872 91.427334,92.354994 78.19612,80.944825 70.655575,74.442149 58.004333,66.3413 50.082251,62.942993 L 35.678459,56.76423 43.239381,74.941708 c 5.357963,12.881252 8.263726,17.187681 9.973035,14.780316 3.46137,-4.874774 9.730078,-4.188007 14.902999,1.632834 3.990147,4.489865 4.002668,5.398257 0.116654,8.461023 -3.682629,2.902479 -5.297263,2.966509 -10.479549,0.415969 -5.52979,-2.721819 -5.916832,-2.607117 -3.97574,1.17835 1.182743,2.30656 3.486632,7.25567 5.11976,10.99806 3.483345,7.98217 19.745449,22.32511 22.506355,19.85023 1.046425,-0.93802 6.766738,-6.2984 12.711793,-11.91191 z m -17.5482,-9.12541 c -3.962019,-3.12268 -1.47166,-15.220973 3.438848,-16.70613 5.229534,-1.581665 8.258507,2.613553 4.478715,6.20306 -1.652778,1.56963 -2.260713,5.09717 -1.350981,7.83898 1.739515,5.24274 -1.584028,6.59114 -6.566582,2.66409 z M 54.101201,79.777659 c -2.420801,-3.08714 5.670741,-7.318733 10.944666,-5.723703 5.940709,1.796711 5.997411,4.583346 0.129378,6.358077 -6.267671,1.895664 -9.222884,1.726316 -11.07405,-0.634567 z m -8.989683,-7.258884 c -1.063433,-1.356176 -0.438458,-3.644089 1.388863,-5.084244 2.511332,-1.979309 3.949253,-1.81909 5.890385,0.656366 2.742814,3.497763 1.359742,6.89356 -2.807679,6.89356 -1.395936,0 -3.408144,-1.109558 -4.471569,-2.465682 z M 28.527036,110.84872 c -0.918648,-1.80931 -1.600546,-1.2719 -1.738634,1.37033 -0.12497,2.39097 0.55519,3.7305 1.511443,2.97687 0.956247,-0.7537 1.058483,-2.70993 0.227191,-4.3472 z m 1.297623,-41.882935 c -2.707467,-3.671168 -3.099224,-3.362434 -3.175935,2.503165 -0.06363,4.879409 0.772338,6.013212 3.088431,4.187749 2.276131,-1.793955 2.300921,-3.689619 0.08752,-6.690914 z"
       id="path1279" />
    <path
       style="fill:#b3b3b3;stroke-width:2.55479"
       d="m 56.658369,234.02408 c -24.633867,-8.81912 -37.626348,-31.02266 -35.224716,-60.19742 0.726983,-8.83115 3.41542,-19.23527 5.974332,-23.12021 4.370035,-6.63453 4.291659,-7.80524 -1.290648,-19.27881 -3.359142,-6.90417 -6.599252,-20.24215 -7.452079,-30.67662 -1.666107,-20.385213 3.569781,-48.151781 9.413164,-49.919053 6.395652,-1.934368 33.573236,10.641951 50.505548,23.371147 8.99886,6.765108 20.388218,18.254491 25.30969,25.53202 7.3469,10.864076 10.58999,13.490666 18.12334,14.678156 21.63568,3.4104 50.83218,23.60826 64.21508,44.42333 14.8489,23.09514 12.43114,41.42247 -7.3198,55.48612 -9.50291,6.76652 -13.49062,8.08793 -24.40756,8.08793 -11.6941,0 -14.36359,-1.06616 -25.71205,-10.26918 l -12.66315,-10.26924 0.1531,8.74641 c 0.2001,11.42632 -5.05509,17.7075 -19.406102,23.19492 -14.480021,5.53674 -25.184322,5.59274 -40.218182,0.21024 z M 177.43846,161.56994 c -11.30754,-23.33591 -50.70943,-44.63677 -66.12961,-35.74995 -4.57872,2.63882 -4.81295,3.6585 -1.55181,6.75546 2.1125,2.00619 6.97138,3.64757 10.79753,3.64757 8.32891,0 28.54937,7.69087 37.94301,14.4316 8.43772,6.05475 16.18145,17.96158 19.37833,29.79628 l 2.4507,9.07237 1.01916,-8.89312 c 0.56057,-4.89124 -1.19775,-13.4683 -3.90731,-19.06021 z M 72.604955,139.97674 c 0,-0.43076 -2.891392,-2.72684 -6.425313,-5.10321 -4.804348,-3.2307 -5.474532,-3.3508 -2.656549,-0.47641 3.418772,3.4876 2.345174,3.92255 -11.560522,4.6837 l -15.329285,0.83902 17.985833,0.41983 c 9.892205,0.23082 17.985836,0.0675 17.985836,-0.36261 z m 21.509753,-19.63036 10.809202,-10.20642 -12.977352,10.72791 c -11.074067,9.15447 -13.495724,10.23561 -16.511841,7.37132 -2.382781,-2.26284 -2.503583,-3.35659 -0.370752,-3.35659 5.259284,0 12.796867,-11.10568 14.879913,-21.92366 C 91.837657,93.123872 91.427334,92.354994 78.19612,80.944825 70.655575,74.442149 58.004333,66.3413 50.082251,62.942993 L 35.678459,56.76423 43.239381,74.941708 c 5.357963,12.881252 8.263726,17.187681 9.973035,14.780316 3.46137,-4.874774 9.730078,-4.188007 14.902999,1.632834 3.990147,4.489865 4.002668,5.398257 0.116654,8.461023 -3.682629,2.902479 -5.297263,2.966509 -10.479549,0.415969 -5.52979,-2.721819 -5.916832,-2.607117 -3.97574,1.17835 1.182743,2.30656 3.486632,7.25567 5.11976,10.99806 3.483345,7.98217 19.745449,22.32511 22.506355,19.85023 1.046425,-0.93802 6.766738,-6.2984 12.711793,-11.91191 z m -17.5482,-9.12541 c -3.962019,-3.12268 -1.47166,-15.220973 3.438848,-16.70613 5.229534,-1.581665 8.258507,2.613553 4.478715,6.20306 -1.652778,1.56963 -2.260713,5.09717 -1.350981,7.83898 1.739515,5.24274 -1.584028,6.59114 -6.566582,2.66409 z M 54.101201,79.777659 c -2.420801,-3.08714 5.670741,-7.318733 10.944666,-5.723703 5.940709,1.796711 5.997411,4.583346 0.129378,6.358077 -6.267671,1.895664 -9.222884,1.726316 -11.07405,-0.634567 z m -8.989683,-7.258884 c -1.063433,-1.356176 -0.438458,-3.644089 1.388863,-5.084244 2.511332,-1.979309 3.949253,-1.81909 5.890385,0.656366 2.742814,3.497763 1.359742,6.89356 -2.807679,6.89356 -1.395936,0 -3.408144,-1.109558 -4.471569,-2.465682 z M 28.527036,110.84872 c -0.918648,-1.80931 -1.600546,-1.2719 -1.738634,1.37033 -0.12497,2.39097 0.55519,3.7305 1.511443,2.97687 0.956247,-0.7537 1.058483,-2.70993 0.227191,-4.3472 z m 1.297623,-41.882935 c -2.707467,-3.671168 -3.099224,-3.362434 -3.175935,2.503165 -0.06363,4.879409 0.772338,6.013212 3.088431,4.187749 2.276131,-1.793955 2.300921,-3.689619 0.08752,-6.690914 z"
       id="path1277" />
    <path
       style="fill:#01e3fd;stroke-width:2.55479"
       d="m 56.658369,234.02408 c -24.633867,-8.81912 -37.626348,-31.02266 -35.224716,-60.19742 0.726983,-8.83115 3.41542,-19.23527 5.974332,-23.12021 4.370035,-6.63453 4.291659,-7.80524 -1.290648,-19.27881 -3.359142,-6.90417 -6.599252,-20.24215 -7.452079,-30.67662 -1.666107,-20.385213 3.569781,-48.151781 9.413164,-49.919053 6.395652,-1.934368 33.573236,10.641951 50.505548,23.371147 8.99886,6.765108 20.388218,18.254491 25.30969,25.53202 7.3469,10.864076 10.58999,13.490666 18.12334,14.678156 21.63568,3.4104 50.83218,23.60826 64.21508,44.42333 14.8489,23.09514 12.43114,41.42247 -7.3198,55.48612 -9.50291,6.76652 -13.49062,8.08793 -24.40756,8.08793 -11.6941,0 -14.36359,-1.06616 -25.71205,-10.26918 l -12.66315,-10.26924 0.1531,8.74641 c 0.2001,11.42632 -5.05509,17.7075 -19.406102,23.19492 -14.480021,5.53674 -25.184322,5.59274 -40.218182,0.21024 z M 177.43846,161.56994 c -11.30754,-23.33591 -50.70943,-44.63677 -66.12961,-35.74995 -4.57872,2.63882 -4.81295,3.6585 -1.55181,6.75546 2.1125,2.00619 6.97138,3.64757 10.79753,3.64757 8.32891,0 28.54937,7.69087 37.94301,14.4316 8.43772,6.05475 16.18145,17.96158 19.37833,29.79628 l 2.4507,9.07237 1.01916,-8.89312 c 0.56057,-4.89124 -1.19775,-13.4683 -3.90731,-19.06021 z M 72.604955,139.15379 c 0,-0.88299 -4.375965,-5.22073 -9.724351,-9.63943 C 55.425531,123.35521 50.239607,114.59973 40.657823,91.995219 L 28.1594,62.509991 25.506947,78.311533 c -2.94014,17.515446 0.276779,39.936477 7.739592,53.942337 4.527912,8.49785 4.547367,8.50537 21.94517,8.50537 9.577282,0 17.413246,-0.72245 17.413246,-1.60545 z M 97.156858,100.63137 C 88.039772,86.896567 64.487153,68.525701 46.960089,61.478347 l -12.272748,-4.934699 1.963319,4.875417 c 7.421897,18.430405 15.415918,34.517852 15.595949,31.385786 0.322462,-5.610354 9.469197,-7.443788 13.807524,-2.767656 7.248806,7.813194 1.905624,13.751305 -8.557277,9.510075 -6.112136,-2.477644 -6.106189,-2.574667 -0.597038,9.73207 2.441448,5.45387 8.565247,13.27144 13.608444,17.3724 l 9.169454,7.45632 12.648232,-10.85 12.648242,-10.84999 z m -19.75568,11.39866 c -3.311217,-2.60976 -2.095682,-5.29224 2.398108,-5.29224 2.374133,0 4.316603,1.531 4.316603,3.40217 0,3.5418 -3.403494,4.49983 -6.714711,1.89007 z M 75.48269,101.34526 c 0,-1.718402 1.827183,-4.319542 4.060397,-5.780338 5.474671,-3.581021 9.208504,1.1003 4.468183,5.601998 -4.387042,4.16622 -8.52858,4.25282 -8.52858,0.17809 z M 55.33855,78.629267 c 0,-3.845653 7.782614,-6.564457 10.149747,-3.545727 0.93547,1.192944 0.900516,3.189674 -0.0775,4.437136 -2.659167,3.391109 -10.072066,2.735066 -10.072066,-0.891409 z m -8.633199,-8.314826 c 0,-2.568537 1.29498,-4.039234 2.877736,-3.268296 1.582746,0.77099 2.877727,2.87252 2.877727,4.670067 0,1.797561 -1.294981,3.268245 -2.877727,3.268245 -1.582756,0 -2.877736,-2.10153 -2.877736,-4.670016 z"
       id="path1275" />
    <path
       style="fill:#00d9f7;stroke-width:2.55479"
       d="m 56.658369,234.02408 c -24.633867,-8.81912 -37.626348,-31.02266 -35.224716,-60.19742 0.726983,-8.83115 3.41542,-19.23527 5.974332,-23.12021 4.370035,-6.63453 4.291659,-7.80524 -1.290648,-19.27881 -3.359142,-6.90417 -6.599252,-20.24215 -7.452079,-30.67662 -1.666107,-20.385213 3.569781,-48.151781 9.413164,-49.919053 6.395652,-1.934368 33.573236,10.641951 50.505548,23.371147 8.99886,6.765108 20.388218,18.254491 25.30969,25.53202 7.3469,10.864076 10.58999,13.490666 18.12334,14.678156 21.63568,3.4104 50.83218,23.60826 64.21508,44.42333 14.8489,23.09514 12.43114,41.42247 -7.3198,55.48612 -9.50291,6.76652 -13.49062,8.08793 -24.40756,8.08793 -11.6941,0 -14.36359,-1.06616 -25.71205,-10.26918 l -12.66315,-10.26924 0.1531,8.74641 c 0.2001,11.42632 -5.05509,17.7075 -19.406102,23.19492 -14.480021,5.53674 -25.184322,5.59274 -40.218182,0.21024 z m 4.435651,-5.7005 c 0,-0.49055 -2.009727,-1.49923 -4.46607,-2.24213 -2.560961,-0.77453 -3.716076,-0.39411 -2.707891,0.89141 1.689967,2.15515 7.173961,3.18769 7.173961,1.35072 z m 43.53307,-5.34591 c 3.57954,-3.59729 3.47775,-3.67753 -1.0865,-0.85631 -2.76982,1.71203 -5.036032,3.49821 -5.036032,3.96916 0,1.86673 2.363152,0.66522 6.122532,-3.11285 z M 94.187958,213.3383 c 2.86474,-2.49494 4.56113,-4.53622 3.76976,-4.53622 -0.79135,0 -3.78275,2.04128 -6.647499,4.53622 -2.864741,2.49487 -4.561136,4.53615 -3.769759,4.53615 0.791345,0 3.782753,-2.04128 6.647498,-4.53615 z M 109.132,209.41227 c -0.72959,-2.20676 -1.37459,-0.95037 -1.43323,2.79197 -0.0587,3.74233 0.5383,5.54793 1.3266,4.01236 0.78824,-1.53562 0.83626,-4.59755 0.10657,-6.80433 z m 49.02558,7.09192 c -0.95625,-0.75371 -3.43829,-0.83426 -5.51567,-0.17938 -2.29566,0.724 -1.61376,1.26142 1.73864,1.37027 3.0336,0.0984 4.73327,-0.43783 3.77703,-1.19121 z m -99.941295,-1.75415 c 0,-0.47127 -2.266219,-2.25713 -5.036034,-3.96917 -4.564243,-2.82122 -4.666031,-2.74098 -1.086502,0.85638 3.759383,3.77801 6.122536,4.97952 6.122536,3.11279 z m 86.332005,0.14658 c 0,-0.39025 -4.20869,-3.70743 -9.35263,-7.37132 l -9.35264,-6.66161 8.45218,7.37134 c 7.87859,6.87105 10.25309,8.41381 10.25309,6.66159 z m 33.09393,-6.0946 c 2.86475,-2.49488 4.56114,-4.53616 3.76977,-4.53616 -0.79135,0 -3.78275,2.04128 -6.64749,4.53616 -2.86475,2.49493 -4.56114,4.53622 -3.76977,4.53622 0.79135,0 3.78275,-2.04129 6.64749,-4.53622 z M 77.581031,209.6998 c -0.956246,-0.75365 -3.438293,-0.8342 -5.515652,-0.17938 -2.295668,0.72406 -1.613762,1.26149 1.738633,1.37033 3.033606,0.0984 4.733266,-0.43783 3.777019,-1.19127 z m -10.731548,-1.68028 c 0,-0.43012 -2.913701,-2.72684 -6.4749,-5.10323 l -6.474901,-4.32071 5.482053,5.10323 c 5.151769,4.79576 7.467748,6.13574 7.467748,4.32071 z M 169.00903,197.46153 c 2.86474,-2.49487 4.56113,-4.53615 3.76976,-4.53615 -0.79135,0 -3.78275,2.04128 -6.64749,4.53615 -2.86474,2.49493 -4.56114,4.53622 -3.76977,4.53622 0.79135,0 3.78275,-2.04129 6.6475,-4.53622 z m -4.36067,-15.68762 c 0.0587,-7.27977 -1.57776,-5.43463 -3.85516,4.34721 -1.3003,5.58495 -1.00935,6.92975 0.98145,4.53615 1.5563,-1.87117 2.84948,-5.86869 2.87371,-8.88336 z m -48.87741,2.0791 c -1.69413,-2.49494 -3.72772,-4.53622 -4.51909,-4.53622 -0.79135,0 -0.053,2.04128 1.64136,4.53622 1.69413,2.49486 3.72772,4.53615 4.5191,4.53615 0.79135,0 0.053,-2.04129 -1.64137,-4.53615 z m 65.21684,-21.07687 c -3.14548,-7.79656 -27.62221,-29.22794 -40.60227,-35.55059 -5.7852,-2.818 -11.60142,-4.05273 -14.69012,-3.11857 -3.65832,1.10641 -4.4793,0.73808 -2.88544,-1.29446 1.46202,-1.86448 -0.84842,-1.58713 -6.72226,0.80687 -4.92247,2.00625 -8.94994,4.43798 -8.94994,5.40391 0,3.11819 6.76554,7.19966 11.9342,7.19966 2.76521,0 10.92358,2.47083 18.12972,5.49064 7.20614,3.01989 13.10207,4.87015 13.10207,4.11189 0,-0.75833 3.83891,1.51994 8.53089,5.06284 4.69198,3.5429 7.92136,7.21895 7.1764,8.16893 -0.74493,0.95005 -0.3564,2.06964 0.86338,2.48806 1.21984,0.41855 4.74954,6.88463 7.84382,14.36936 l 5.62596,13.60853 1.59955,-10.20642 c 0.87975,-5.61351 0.44955,-13.05683 -0.95596,-16.54065 z m -129.438887,9.31108 c -0.918648,-1.80931 -1.600546,-1.2719 -1.738634,1.37033 -0.124971,2.39097 0.55519,3.73058 1.511443,2.97687 0.956247,-0.75363 1.058483,-2.70992 0.227191,-4.3472 z m 21.056052,-3.8596 c 0,-1.1093 -2.608658,-4.42641 -5.797017,-7.37133 l -5.797017,-5.35446 5.077579,7.35692 c 5.324966,7.71541 6.516455,8.6971 6.516455,5.36887 z m 83.454275,-5.57005 c 0,-0.4301 -2.91371,-2.72676 -6.47491,-5.10321 l -6.4749,-4.32064 5.48205,5.10321 c 5.15177,4.79578 7.46776,6.13575 7.46776,4.32064 z m -30.21621,-13.54943 c 4.5382,-0.9842 4.28155,-1.15965 -1.21346,-0.82944 -3.83291,0.23016 -7.49269,1.9498 -8.13284,3.82097 -0.76909,2.24792 -0.35737,2.52926 1.21345,0.82937 1.30757,-1.41502 4.96735,-3.1344 8.13285,-3.8209 z m -55.396371,-0.77872 c -1.978436,-0.62942 -5.215887,-0.62942 -7.194331,0 -1.978445,0.62943 -0.35974,1.14403 3.597165,1.14403 3.956889,0 5.57561,-0.51499 3.597166,-1.14403 z m 39.935901,-4.73513 c 3.57954,-3.5973 3.47775,-3.67753 -1.08649,-0.85632 -2.76982,1.71205 -5.03604,3.49816 -5.03604,3.96916 0,1.86673 2.36315,0.66524 6.12253,-3.11284 z m -37.777595,-4.44056 c 0,-0.88299 -4.375965,-5.22073 -9.724351,-9.63943 C 55.425531,123.35515 50.239607,114.59967 40.657823,91.995155 L 28.1594,62.509926 25.506947,78.311469 c -2.94014,17.515446 0.276779,39.936471 7.739592,53.942341 4.527912,8.49784 4.547367,8.50536 21.94517,8.50536 9.577282,0 17.413246,-0.72244 17.413246,-1.60544 z M 97.156858,100.63131 C 88.039772,86.896502 64.487153,68.525637 46.960089,61.478283 l -12.272748,-4.9347 1.963319,4.875418 c 7.421897,18.430405 15.415918,34.517851 15.595949,31.385785 0.322462,-5.610353 9.469197,-7.443787 13.807524,-2.767655 7.248806,7.813193 1.905624,13.751309 -8.557277,9.510075 -6.112136,-2.477645 -6.106189,-2.574654 -0.597038,9.732074 2.441448,5.45387 8.565247,13.27144 13.608444,17.3724 l 9.169454,7.45632 12.648232,-10.85 12.648242,-10.84999 z m -19.75568,11.39865 c -3.311217,-2.60975 -2.095682,-5.29223 2.398108,-5.29223 2.374133,0 4.316603,1.53099 4.316603,3.40217 0,3.5418 -3.403494,4.49983 -6.714711,1.89006 z M 75.48269,101.3452 c 0,-1.718406 1.827183,-4.319547 4.060397,-5.780342 5.474671,-3.581021 9.208504,1.1003 4.468183,5.601992 -4.387042,4.16622 -8.52858,4.25283 -8.52858,0.17809 z M 55.33855,78.629203 c 0,-3.845654 7.782614,-6.564457 10.149747,-3.545728 0.93547,1.192944 0.900516,3.189674 -0.0775,4.437136 -2.659167,3.39111 -10.072066,2.735066 -10.072066,-0.891408 z m -8.633199,-8.314826 c 0,-2.568538 1.29498,-4.039235 2.877736,-3.268296 1.582746,0.77099 2.877727,2.872519 2.877727,4.670067 0,1.79756 -1.294981,3.268245 -2.877727,3.268245 -1.582756,0 -2.877736,-2.10153 -2.877736,-4.670016 z m 57.554669,55.702153 c 5.36923,-4.36603 9.11474,-7.93832 8.32337,-7.93832 -0.79135,0 -5.83188,3.57229 -11.20111,7.93832 -5.369212,4.3661 -9.114738,7.93838 -8.323362,7.93838 0.79135,0 5.83187,-3.57228 11.201102,-7.93838 z"
       id="path1273" />
    <path
       style="fill:#eb3593;stroke-width:2.55479"
       d="m 56.658369,234.02408 c -24.633867,-8.81912 -37.626348,-31.02266 -35.224716,-60.19742 0.726983,-8.83115 3.41542,-19.23527 5.974332,-23.12021 4.370035,-6.63453 4.291659,-7.80524 -1.290648,-19.27881 -3.359142,-6.90417 -6.599252,-20.24215 -7.452079,-30.67662 -1.666107,-20.385213 3.569781,-48.151781 9.413164,-49.919053 6.395652,-1.934368 33.573236,10.641951 50.505548,23.371147 8.99886,6.765108 20.388218,18.254491 25.30969,25.53202 7.3469,10.864076 10.58999,13.490666 18.12334,14.678156 21.63568,3.4104 50.83218,23.60826 64.21508,44.42333 14.8489,23.09514 12.43114,41.42247 -7.3198,55.48612 -9.50291,6.76652 -13.49062,8.08793 -24.40756,8.08793 -11.6941,0 -14.36359,-1.06616 -25.71205,-10.26918 l -12.66315,-10.26924 0.1531,8.74641 c 0.2001,11.42632 -5.05509,17.7075 -19.406102,23.19492 -14.480021,5.53674 -25.184322,5.59274 -40.218182,0.21024 z m 39.026049,-5.96666 c 10.068102,-4.10347 14.448552,-9.90529 13.997252,-18.53919 -0.23322,-4.46164 -0.70063,-5.01924 -1.55091,-1.85021 -0.66939,2.49494 -1.83292,6.8141 -2.5856,9.59816 -1.82829,6.76267 -15.342987,11.94876 -31.137642,11.94876 -20.177904,0 -35.509987,-12.23589 -41.827304,-33.38065 -1.912117,-6.40012 -2.629402,-7.13891 -2.824085,-2.90885 -0.441068,9.58408 12.825117,28.95341 23.267086,33.97098 11.386812,5.47167 30.789154,5.99972 42.661203,1.161 z m -3.156127,-13.78669 c 6.302747,-4.17991 8.912279,-7.93781 9.056249,-13.04153 0.17588,-6.23393 0.55724,-6.57763 2.92198,-2.63355 2.14971,3.58553 2.37067,3.11021 1.05436,-2.26805 -0.91593,-3.7424 -6.763252,-15.57342 -12.994029,-26.29117 -6.230783,-10.71782 -11.328698,-20.73786 -11.328698,-22.2668 0,-1.5632 -2.204167,-2.28842 -5.036033,-1.65707 -2.769822,0.61785 -12.158424,1.85663 -20.86357,2.75351 -8.705147,0.89682 -14.228043,2.07131 -12.273108,2.60989 2.728749,0.75184 2.561629,2.49242 -0.719398,7.49317 -2.350615,3.58263 -4.157061,8.35068 -4.014315,10.5957 0.142753,2.24497 1.40136,0.98793 2.796928,-2.79349 3.796645,-10.28731 13.348362,-17.32766 22.389949,-16.50311 6.466263,0.58957 9.580774,3.77351 20.16345,20.61216 6.883755,10.95306 13.177742,23.80364 13.986632,28.55678 1.26536,7.43537 0.36765,9.32601 -6.429112,13.53975 -12.296561,7.62334 -26.058623,6.54259 -37.402616,-2.93747 -5.156558,-4.30926 -10.679292,-11.70894 -12.272741,-16.44369 -1.59345,-4.73476 -3.031028,-6.72165 -3.194608,-4.41523 -0.467987,6.5984 8.217165,19.13967 17.533542,25.31819 11.360821,7.53436 25.049068,7.4491 36.625179,-0.22824 z m 6.196497,-21.34529 c -0.12881,-1.87117 -5.82036,-12.38851 -12.647953,-23.37185 -6.827593,-10.98328 -11.647211,-20.34304 -10.710257,-20.79945 2.626326,-1.27929 26.609412,41.71327 25.006382,44.82689 -0.913112,1.77357 -1.496972,1.54134 -1.648172,-0.65559 z m 69.115542,21.43678 c 9.72859,-3.96511 19.97155,-15.75107 19.61585,-22.57084 -0.18868,-3.61773 -0.68889,-3.36127 -2.47063,1.26651 -3.97934,10.3359 -8.78303,15.62807 -17.35779,19.12289 -11.88796,4.84514 -18.46785,4.28265 -28.61414,-2.44627 -9.16659,-6.07917 -12.76009,-12.99864 -3.86764,-7.44738 4.19967,2.62172 4.0981,2.03929 -0.64378,-3.69148 -3.09658,-3.74234 -10.48629,-13.94876 -16.42158,-22.6809 -5.93528,-8.7322 -10.80727,-14.85606 -10.82665,-13.60859 -0.0196,1.24746 5.17403,9.80035 11.5409,19.00652 6.36688,9.20611 10.99526,17.19625 10.2853,17.75578 -1.52299,1.20034 -11.72524,-12.36775 -25.93725,-34.4942 -5.608742,-8.73219 -10.241832,-14.97442 -10.295757,-13.87161 -0.123102,2.51719 21.210557,35.6377 30.119817,46.76107 8.44977,10.54962 23.22311,20.41073 30.57824,20.41073 3.12266,0 9.55547,-1.5805 14.29512,-3.51223 z m -83.535256,-5.63993 c 3.061456,-1.29131 5.566277,-3.29435 5.566277,-4.4511 0,-3.3747 -11.963667,-27.62165 -13.16257,-26.67674 -0.599239,0.47256 1.515881,6.26299 4.700269,12.86821 4.57267,9.48486 5.063817,12.69898 2.336339,15.28913 -5.722433,5.43444 -17.502544,2.67463 -24.716721,-5.79044 -3.612314,-4.23874 -6.567854,-6.61345 -6.567854,-5.27726 0,1.3362 3.352567,5.56973 7.450153,9.40779 7.753387,7.26235 14.926484,8.62394 24.394107,4.63041 z m 66.718116,-3.69038 c -1.97844,-0.62943 -5.2159,-0.62943 -7.19433,0 -1.97845,0.62941 -0.35974,1.14395 3.59717,1.14395 3.95688,0 5.57561,-0.51499 3.59716,-1.14395 z m 16.76477,-7.00325 6.97654,-6.23728 -8.6332,5.67022 c -4.74827,3.11864 -9.17278,5.92545 -9.83226,6.23727 -0.65945,0.31181 0.0859,0.56706 1.65666,0.56706 1.57066,0 5.99517,-2.80676 9.83226,-6.23727 z M 163.4093,188.0025 c 3.50667,-8.70796 -1.6512,-20.07076 -13.26604,-29.22504 -6.24274,-4.92017 -12.94602,-8.94584 -14.89619,-8.94584 -1.95016,0 1.1022,2.48928 6.78305,5.53172 16.03209,8.58626 25.54502,28.95746 16.1874,34.66418 -11.15797,6.80465 -13.37844,5.53167 -26.63284,-15.26856 -7.1148,-11.16528 -12.93599,-21.27058 -12.93599,-22.45619 0,-1.18562 2.91371,-2.59794 6.4749,-3.13857 5.55157,-0.84275 5.34638,-1.02695 -1.43887,-1.29184 -5.33889,-0.20829 -7.91377,0.81446 -7.91377,3.14366 0,3.44279 21.2349,38.3779 26.40688,43.44389 3.92147,3.84116 18.92143,-0.72103 21.23147,-6.45741 z M 56.602434,162.87315 c 3.366361,-5.99277 6.647453,-4.84161 12.928853,4.53622 3.133364,4.67792 5.749419,7.48473 5.813454,6.23727 0.227019,-4.42326 -11.599303,-17.32945 -15.056244,-16.43097 -6.229306,1.61895 -10.63029,11.60518 -10.239903,23.23523 l 0.380623,11.34048 1.971779,-12.47453 c 1.084472,-6.86097 2.975101,-14.26065 4.201397,-16.4437 z M 180.7724,186.49446 c 1.36769,0.41855 3.69811,-1.95417 5.17873,-5.27236 5.90123,-13.22529 -25.92729,-47.8824 -52.71936,-57.40449 -10.77916,-3.831 -11.97854,-3.85184 -18.80377,-0.32725 -4.00963,2.07067 -7.29024,5.11099 -7.29024,6.75636 0,1.6453 8.97173,5.76575 19.9372,9.15654 14.14167,4.37291 23.29079,9.03244 31.47391,16.02938 11.83093,10.11605 19.05966,24.66504 15.97209,32.14662 -1.27271,3.08399 -1.00134,3.40088 1.01324,1.18325 1.51333,-1.66589 3.87053,-2.68652 5.2382,-2.26811 z M 28.544908,175.34769 c -0.723801,-2.18305 -1.31605,-0.39669 -1.31605,3.96916 0,4.3661 0.592224,6.15221 1.31605,3.96915 0.723803,-2.18305 0.723803,-5.75526 0,-7.93831 z m 8.555378,1.13405 c -0.798278,-1.55929 -1.451487,-0.28352 -1.451487,2.83511 0,3.11864 0.653159,4.39445 1.451487,2.8351 0.79836,-1.55928 0.79836,-4.11093 0,-5.67021 z m -0.388699,-28.46696 c -1.561202,-1.25159 -7.275536,13.76322 -7.078406,18.59898 0.106774,2.62062 1.934803,-0.33818 4.062176,-6.57571 2.127373,-6.23728 3.484676,-11.64774 3.01623,-12.02327 z m 67.899733,4.82207 c -3.3924,-4.59789 -4.2116,-3.12624 -1.43465,2.57734 0.98691,2.02702 2.40059,3.20769 3.14152,2.62371 0.74093,-0.58377 -0.027,-2.92446 -1.70687,-5.20105 z m -12.743432,-9.95229 c -1.123267,-3.38545 1.82998,-7.46133 10.681992,-14.74265 11.6484,-9.5815 13.89635,-13.10151 4.5702,-7.15639 -10.688622,6.81372 -19.560596,17.58714 -18.102371,21.98204 0.838698,2.52779 2.172401,4.59596 2.963779,4.59596 0.791345,0 0.74028,-2.10553 -0.113629,-4.67896 z m 24.980152,-4.26741 c -0.68033,-0.55421 -4.11469,1.37875 -7.63191,4.2959 l -6.39498,5.30393 7.63193,-4.29589 c 4.19756,-2.36275 7.07528,-4.74948 6.39496,-5.30394 z m -44.243085,0.53683 c 0,-0.88298 -4.375965,-5.22073 -9.724351,-9.63942 C 55.425531,123.3554 50.239607,114.59993 40.657823,91.995412 L 28.1594,62.510184 25.506947,78.311726 c -2.94014,17.515446 0.276779,39.936474 7.739592,53.942334 4.527912,8.49785 4.547367,8.50537 21.94517,8.50537 9.577282,0 17.413246,-0.72244 17.413246,-1.60545 z M 97.156858,100.63156 C 88.039772,86.89676 64.487153,68.525894 46.960089,61.47854 l -12.272748,-4.934699 1.963319,4.875417 c 7.421897,18.430405 15.415918,34.517852 15.595949,31.385786 0.322462,-5.610354 9.469197,-7.443787 13.807524,-2.767669 7.248806,7.813207 1.905624,13.751325 -8.557277,9.510088 -6.112136,-2.477644 -6.106189,-2.574667 -0.597038,9.732067 2.441448,5.45387 8.565247,13.27144 13.608444,17.37241 l 9.169454,7.45631 12.648232,-10.85 12.648242,-10.84999 z m -19.75568,11.39866 c -3.311217,-2.60976 -2.095682,-5.29224 2.398108,-5.29224 2.374133,0 4.316603,1.531 4.316603,3.40218 0,3.5418 -3.403494,4.49983 -6.714711,1.89006 z M 75.48269,101.34546 c 0,-1.718409 1.827183,-4.319549 4.060397,-5.780345 5.474671,-3.581021 9.208504,1.1003 4.468183,5.601995 -4.387042,4.16622 -8.52858,4.25283 -8.52858,0.17809 z m -20.14414,-22.716 c 0,-3.845653 7.782614,-6.564456 10.149747,-3.545727 0.93547,1.192944 0.900516,3.189674 -0.0775,4.437136 -2.659167,3.39111 -10.072066,2.735066 -10.072066,-0.891409 z m -8.633199,-8.314825 c 0,-2.568538 1.29498,-4.039235 2.877736,-3.268297 1.582746,0.77099 2.877727,2.87252 2.877727,4.670067 0,1.797561 -1.294981,3.268245 -2.877727,3.268245 -1.582756,0 -2.877736,-2.101529 -2.877736,-4.670015 z"
       id="path1271" />
    <path
       style="fill:#00c9e4;stroke-width:2.55479"
       d="m 56.658369,234.02408 c -24.633867,-8.81912 -37.626348,-31.02266 -35.224716,-60.19742 0.726983,-8.83115 3.41542,-19.23527 5.974332,-23.12021 4.370035,-6.63453 4.291659,-7.80524 -1.290648,-19.27881 -3.359142,-6.90417 -6.599252,-20.24215 -7.452079,-30.67662 -1.666107,-20.385213 3.569781,-48.151781 9.413164,-49.919053 6.395652,-1.934368 33.573236,10.641951 50.505548,23.371147 8.99886,6.765108 20.388218,18.254491 25.30969,25.53202 7.3469,10.864076 10.58999,13.490666 18.12334,14.678156 21.63568,3.4104 50.83218,23.60826 64.21508,44.42333 14.8489,23.09514 12.43114,41.42247 -7.3198,55.48612 -9.50291,6.76652 -13.49062,8.08793 -24.40756,8.08793 -11.6941,0 -14.36359,-1.06616 -25.71205,-10.26918 l -12.66315,-10.26924 0.1531,8.74641 c 0.2001,11.42632 -5.05509,17.7075 -19.406102,23.19492 -14.480021,5.53674 -25.184322,5.59274 -40.218182,0.21024 z m 39.026049,-5.96666 c 10.068102,-4.10347 14.448552,-9.90529 13.997252,-18.53919 -0.23322,-4.46164 -0.70063,-5.01924 -1.55091,-1.85021 -0.66939,2.49494 -1.83292,6.8141 -2.5856,9.59816 -1.82829,6.76267 -15.342987,11.94876 -31.137642,11.94876 -20.177904,0 -35.509987,-12.23589 -41.827304,-33.38065 -1.912117,-6.40012 -2.629402,-7.13891 -2.824085,-2.90885 -0.441068,9.58408 12.825117,28.95341 23.267086,33.97098 11.386812,5.47167 30.789154,5.99972 42.661203,1.161 z m -3.156127,-13.78669 c 6.302747,-4.17991 8.912279,-7.93781 9.056249,-13.04153 0.17588,-6.23393 0.55724,-6.57763 2.92198,-2.63355 2.14971,3.58553 2.37067,3.11021 1.05436,-2.26805 -0.91593,-3.7424 -6.763252,-15.57342 -12.994029,-26.29117 -6.230783,-10.71782 -11.328698,-20.73786 -11.328698,-22.2668 0,-1.5632 -2.204167,-2.28842 -5.036033,-1.65707 -2.769822,0.61785 -12.158424,1.85663 -20.86357,2.75351 -8.705147,0.89682 -14.228043,2.07131 -12.273108,2.60989 2.728749,0.75184 2.561629,2.49242 -0.719398,7.49317 -2.350615,3.58263 -4.157061,8.35068 -4.014315,10.5957 0.142753,2.24497 1.40136,0.98793 2.796928,-2.79349 3.796645,-10.28731 13.348362,-17.32766 22.389949,-16.50311 6.466263,0.58957 9.580774,3.77351 20.16345,20.61216 6.883755,10.95306 13.177742,23.80364 13.986632,28.55678 1.26536,7.43537 0.36765,9.32601 -6.429112,13.53975 -12.296561,7.62334 -26.058623,6.54259 -37.402616,-2.93747 -5.156558,-4.30926 -10.679292,-11.70894 -12.272741,-16.44369 -1.59345,-4.73476 -3.031028,-6.72165 -3.194608,-4.41523 -0.467987,6.5984 8.217165,19.13967 17.533542,25.31819 11.360821,7.53436 25.049068,7.4491 36.625179,-0.22824 z m 6.196497,-21.34529 c -0.12881,-1.87117 -5.82036,-12.38851 -12.647953,-23.37185 -6.827593,-10.98328 -11.647211,-20.34304 -10.710257,-20.79945 2.626326,-1.27929 26.609412,41.71327 25.006382,44.82689 -0.913112,1.77357 -1.496972,1.54134 -1.648172,-0.65559 z m 69.115542,21.43678 c 9.72859,-3.96511 19.97155,-15.75107 19.61585,-22.57084 -0.18868,-3.61773 -0.68889,-3.36127 -2.47063,1.26651 -3.97934,10.3359 -8.78303,15.62807 -17.35779,19.12289 -11.88796,4.84514 -18.46785,4.28265 -28.61414,-2.44627 -9.16659,-6.07917 -12.76009,-12.99864 -3.86764,-7.44738 4.19967,2.62172 4.0981,2.03929 -0.64378,-3.69148 -3.09658,-3.74234 -10.48629,-13.94876 -16.42158,-22.6809 -5.93528,-8.7322 -10.80727,-14.85606 -10.82665,-13.60859 -0.0196,1.24746 5.17403,9.80035 11.5409,19.00652 6.36688,9.20611 10.99526,17.19625 10.2853,17.75578 -1.52299,1.20034 -11.72524,-12.36775 -25.93725,-34.4942 -5.608742,-8.73219 -10.241832,-14.97442 -10.295757,-13.87161 -0.123102,2.51719 21.210557,35.6377 30.119817,46.76107 8.44977,10.54962 23.22311,20.41073 30.57824,20.41073 3.12266,0 9.55547,-1.5805 14.29512,-3.51223 z m -83.535256,-5.63993 c 3.061456,-1.29131 5.566277,-3.29435 5.566277,-4.4511 0,-3.3747 -11.963667,-27.62165 -13.16257,-26.67674 -0.599239,0.47256 1.515881,6.26299 4.700269,12.86821 4.57267,9.48486 5.063817,12.69898 2.336339,15.28913 -5.722433,5.43444 -17.502544,2.67463 -24.716721,-5.79044 -3.612314,-4.23874 -6.567854,-6.61345 -6.567854,-5.27726 0,1.3362 3.352567,5.56973 7.450153,9.40779 7.753387,7.26235 14.926484,8.62394 24.394107,4.63041 z m 66.718116,-3.69038 c -1.97844,-0.62943 -5.2159,-0.62943 -7.19433,0 -1.97845,0.62941 -0.35974,1.14395 3.59717,1.14395 3.95688,0 5.57561,-0.51499 3.59716,-1.14395 z m 16.76477,-7.00325 6.97654,-6.23728 -8.6332,5.67022 c -4.74827,3.11864 -9.17278,5.92545 -9.83226,6.23727 -0.65945,0.31181 0.0859,0.56706 1.65666,0.56706 1.57066,0 5.99517,-2.80676 9.83226,-6.23727 z M 163.4093,188.0025 c 3.50667,-8.70796 -1.6512,-20.07076 -13.26604,-29.22504 -6.24274,-4.92017 -12.94602,-8.94584 -14.89619,-8.94584 -1.95016,0 1.1022,2.48928 6.78305,5.53172 16.03209,8.58626 25.54502,28.95746 16.1874,34.66418 -11.15797,6.80465 -13.37844,5.53167 -26.63284,-15.26856 -7.1148,-11.16528 -12.93599,-21.27058 -12.93599,-22.45619 0,-1.18562 2.91371,-2.59794 6.4749,-3.13857 5.55157,-0.84275 5.34638,-1.02695 -1.43887,-1.29184 -5.33889,-0.20829 -7.91377,0.81446 -7.91377,3.14366 0,3.44279 21.2349,38.3779 26.40688,43.44389 3.92147,3.84116 18.92143,-0.72103 21.23147,-6.45741 z M 56.602434,162.87315 c 3.366361,-5.99277 6.647453,-4.84161 12.928853,4.53622 3.133364,4.67792 5.749419,7.48473 5.813454,6.23727 0.227019,-4.42326 -11.599303,-17.32945 -15.056244,-16.43097 -6.229306,1.61895 -10.63029,11.60518 -10.239903,23.23523 l 0.380623,11.34048 1.971779,-12.47453 c 1.084472,-6.86097 2.975101,-14.26065 4.201397,-16.4437 z M 180.7724,186.49446 c 1.36769,0.41855 3.69811,-1.95417 5.17873,-5.27236 5.90123,-13.22529 -25.92729,-47.8824 -52.71936,-57.40449 -10.77916,-3.831 -11.97854,-3.85184 -18.80377,-0.32725 -4.00963,2.07067 -7.29024,5.11099 -7.29024,6.75636 0,1.6453 8.97173,5.76575 19.9372,9.15654 14.14167,4.37291 23.29079,9.03244 31.47391,16.02938 11.83093,10.11605 19.05966,24.66504 15.97209,32.14662 -1.27271,3.08399 -1.00134,3.40088 1.01324,1.18325 1.51333,-1.66589 3.87053,-2.68652 5.2382,-2.26811 z M 28.544908,175.34769 c -0.723801,-2.18305 -1.31605,-0.39669 -1.31605,3.96916 0,4.3661 0.592224,6.15221 1.31605,3.96915 0.723803,-2.18305 0.723803,-5.75526 0,-7.93831 z m 8.555378,1.13405 c -0.798278,-1.55929 -1.451487,-0.28352 -1.451487,2.83511 0,3.11864 0.653159,4.39445 1.451487,2.8351 0.79836,-1.55928 0.79836,-4.11093 0,-5.67021 z m -0.388699,-28.46696 c -1.561202,-1.25159 -7.275536,13.76322 -7.078406,18.59898 0.106774,2.62062 1.934803,-0.33818 4.062176,-6.57571 2.127373,-6.23728 3.484676,-11.64774 3.01623,-12.02327 z m 67.899733,4.82207 c -3.3924,-4.59789 -4.2116,-3.12624 -1.43465,2.57734 0.98691,2.02702 2.40059,3.20769 3.14152,2.62371 0.74093,-0.58377 -0.027,-2.92446 -1.70687,-5.20105 z m -12.743432,-9.95229 c -1.123267,-3.38545 1.82998,-7.46133 10.681992,-14.74265 11.6484,-9.5815 13.89635,-13.10151 4.5702,-7.15639 -10.688622,6.81372 -19.560596,17.58714 -18.102371,21.98204 0.838698,2.52779 2.172401,4.59596 2.963779,4.59596 0.791345,0 0.74028,-2.10553 -0.113629,-4.67896 z m 24.980152,-4.26741 c -0.68033,-0.55421 -4.11469,1.37875 -7.63191,4.2959 l -6.39498,5.30393 7.63193,-4.29589 c 4.19756,-2.36275 7.07528,-4.74948 6.39496,-5.30394 z m -44.243085,0.53683 c 0,-0.88298 -4.375965,-5.22073 -9.724351,-9.63942 C 55.425531,123.3554 50.239607,114.59993 40.657823,91.995412 L 28.1594,62.510184 25.506947,78.311726 c -2.94014,17.515446 0.276779,39.936474 7.739592,53.942334 4.527912,8.49785 4.547367,8.50537 21.94517,8.50537 9.577282,0 17.413246,-0.72244 17.413246,-1.60545 z M 97.156858,100.63156 C 88.039772,86.89676 64.487153,68.525894 46.960089,61.47854 l -12.272748,-4.934699 1.963319,4.875417 c 7.421897,18.430405 15.415918,34.517852 15.595949,31.385786 0.322462,-5.610354 9.469197,-7.443787 13.807524,-2.767669 7.248806,7.813207 1.905624,13.751325 -8.557277,9.510088 -6.112136,-2.477644 -6.106189,-2.574667 -0.597038,9.732067 2.441448,5.45387 8.565247,13.27144 13.608444,17.37241 l 9.169454,7.45631 12.648232,-10.85 12.648242,-10.84999 z m -21.674168,0.7139 c 0,-1.718409 1.827183,-4.319549 4.060397,-5.780345 5.474671,-3.581021 9.208504,1.1003 4.468183,5.601995 -4.387042,4.16622 -8.52858,4.25283 -8.52858,0.17809 z m -20.14414,-22.716 c 0,-3.845653 7.782614,-6.564456 10.149747,-3.545727 0.93547,1.192944 0.900516,3.189674 -0.0775,4.437136 -2.659167,3.39111 -10.072066,2.735066 -10.072066,-0.891409 z"
       id="path1269" />
    <path
       style="fill:#8e8e8e;stroke-width:2.55479"
       d="m 56.658369,234.02408 c -24.633867,-8.81912 -37.626348,-31.02266 -35.224716,-60.19742 0.726983,-8.83115 3.41542,-19.23527 5.974332,-23.12021 4.370035,-6.63453 4.291659,-7.80524 -1.290648,-19.27881 -3.359142,-6.90417 -6.599252,-20.24215 -7.452079,-30.67662 -1.666107,-20.385213 3.569781,-48.151781 9.413164,-49.919053 6.395652,-1.934368 33.573236,10.641951 50.505548,23.371147 8.99886,6.765108 20.388218,18.254491 25.30969,25.53202 7.3469,10.864076 10.58999,13.490666 18.12334,14.678156 21.63568,3.4104 50.83218,23.60826 64.21508,44.42333 14.8489,23.09514 12.43114,41.42247 -7.3198,55.48612 -9.50291,6.76652 -13.49062,8.08793 -24.40756,8.08793 -11.6941,0 -14.36359,-1.06616 -25.71205,-10.26918 l -12.66315,-10.26924 0.1531,8.74641 c 0.2001,11.42632 -5.05509,17.7075 -19.406102,23.19492 -14.480021,5.53674 -25.184322,5.59274 -40.218182,0.21024 z m 44.503131,-8.41287 c 6.54707,-4.34199 8.85399,-7.79514 8.85399,-13.2535 0,-8.80383 -7.8585,-27.49468 -19.968478,-47.49336 -4.844874,-8.001 -8.808859,-15.74586 -8.808859,-17.21089 0,-1.67296 -2.245418,-2.10205 -6.036793,-1.15361 -3.320241,0.83053 -13.720216,1.6493 -23.111053,1.81949 l -17.074258,0.30923 -4.227418,11.21955 c -5.334381,14.15747 -5.319567,22.0151 0.0726,38.33034 7.894264,23.88748 21.030305,33.28143 46.559304,33.29597 11.827284,0.006 16.707203,-1.19841 23.741295,-5.86334 z M 59.295478,213.85488 c -21.156858,-13.55786 -25.873017,-44.7912 -8.912351,-59.02317 11.352796,-9.52635 19.332721,-6.18705 31.411864,13.14466 5.845894,9.3559 12.300327,21.96102 14.343187,28.01139 3.64957,10.80898 3.57439,11.09553 -4.31447,16.44369 -9.528672,6.45985 -23.701123,7.08008 -32.52823,1.42343 z m 26.383254,-5.97784 c 5.088395,-2.93245 5.218782,-3.90436 1.597487,-11.90747 -10.294345,-22.75067 -21.440728,-39.51235 -25.832102,-38.84584 -12.130778,1.84128 -15.867989,27.52393 -6.182507,42.48711 7.62357,11.77773 18.972459,14.86189 30.417122,8.2662 z m 90.863188,1.19191 c 11.14014,-8.78016 12.86047,-13.0988 11.39994,-28.61805 -1.0749,-11.42168 -13.43961,-29.81132 -27.4903,-40.88538 -14.82339,-11.68309 -41.5666,-22.57185 -50.15861,-20.42263 -8.3995,2.10115 -21.669054,17.11761 -21.00122,23.76597 1.035168,10.30525 30.08717,52.71031 43.93602,64.13013 17.28127,14.25023 27.21829,14.71596 43.31417,2.02996 z m -38.76366,-8.19478 c -6.22873,-4.90918 -20.6359,-25.36871 -27.35197,-38.84236 -5.20323,-10.43858 -5.35493,-12.10382 -1.49812,-16.44369 5.87913,-6.61543 23.05237,-6.48331 35.64687,0.27454 29.82786,16.00425 38.20286,43.4723 16.443,53.92915 -11.11503,5.34136 -17.46115,5.63697 -23.23978,1.08256 z m 23.53619,-9.87885 c 5.04149,-4.94081 2.55684,-19.75167 -4.58964,-27.35875 -12.68118,-13.49847 -40.99493,-21.87237 -40.92573,-12.10391 0.0342,4.8953 10.93712,23.60017 21.28895,36.52455 6.37155,7.95498 8.83525,9.38433 14.06722,8.16116 3.48857,-0.81562 8.06021,-3.16595 10.1592,-5.22305 z M 72.604955,139.15379 c 0,-0.88299 -4.375965,-5.22073 -9.724351,-9.63943 C 55.425531,123.35521 50.239607,114.59973 40.657823,91.995219 L 28.1594,62.509991 25.506947,78.311533 c -2.94014,17.515446 0.276779,39.936477 7.739592,53.942337 4.527912,8.49785 4.547367,8.50537 21.94517,8.50537 9.577282,0 17.413246,-0.72245 17.413246,-1.60545 z M 97.156858,100.63137 C 88.039772,86.896567 64.487153,68.525701 46.960089,61.478347 l -12.272748,-4.934699 1.963319,4.875417 c 7.421897,18.430405 15.415918,34.517852 15.595949,31.385786 0.322462,-5.610354 9.469197,-7.443788 13.807524,-2.767656 7.248806,7.813194 1.905624,13.751305 -8.557277,9.510075 -6.112136,-2.477644 -6.106189,-2.574667 -0.597038,9.73207 2.441448,5.45387 8.565247,13.27144 13.608444,17.3724 l 9.169454,7.45632 12.648232,-10.85 12.648242,-10.84999 z m -21.674168,0.71389 c 0,-1.718402 1.827183,-4.319542 4.060397,-5.780338 5.474671,-3.581021 9.208504,1.1003 4.468183,5.601998 -4.387042,4.16622 -8.52858,4.25282 -8.52858,0.17809 z M 55.33855,78.629267 c 0,-3.845653 7.782614,-6.564457 10.149747,-3.545727 0.93547,1.192944 0.900516,3.189674 -0.0775,4.437136 -2.659167,3.391109 -10.072066,2.735066 -10.072066,-0.891409 z"
       id="path1267" />
    <path
       style="fill:#06b5cd;stroke-width:2.55479"
       d="m 56.658369,234.02408 c -24.633867,-8.81912 -37.626348,-31.02266 -35.224716,-60.19742 0.726983,-8.83115 3.41542,-19.23527 5.974332,-23.12021 4.370035,-6.63453 4.291659,-7.80524 -1.290648,-19.27881 -3.359142,-6.90417 -6.599252,-20.24215 -7.452079,-30.67662 -1.666107,-20.385213 3.569781,-48.151781 9.413164,-49.919053 6.395652,-1.934368 33.573236,10.641951 50.505548,23.371147 8.99886,6.765108 20.388218,18.254491 25.30969,25.53202 7.3469,10.864076 10.58999,13.490666 18.12334,14.678156 21.63568,3.4104 50.83218,23.60826 64.21508,44.42333 14.8489,23.09514 12.43114,41.42247 -7.3198,55.48612 -9.50291,6.76652 -13.49062,8.08793 -24.40756,8.08793 -11.6941,0 -14.36359,-1.06616 -25.71205,-10.26918 l -12.66315,-10.26924 0.1531,8.74641 c 0.2001,11.42632 -5.05509,17.7075 -19.406102,23.19492 -14.480021,5.53674 -25.184322,5.59274 -40.218182,0.21024 z m 44.503131,-8.41287 c 6.54707,-4.34199 8.85399,-7.79514 8.85399,-13.2535 0,-8.80383 -7.8585,-27.49468 -19.968478,-47.49336 -4.844874,-8.001 -8.808859,-15.74586 -8.808859,-17.21089 0,-1.67296 -2.245418,-2.10205 -6.036793,-1.15361 -3.320241,0.83053 -13.720216,1.6493 -23.111053,1.81949 l -17.074258,0.30923 -4.227418,11.21955 c -5.334381,14.15747 -5.319567,22.0151 0.0726,38.33034 7.894264,23.88748 21.030305,33.28143 46.559304,33.29597 11.827284,0.006 16.707203,-1.19841 23.741295,-5.86334 z M 59.295478,213.85488 c -21.156858,-13.55786 -25.873017,-44.7912 -8.912351,-59.02317 11.352796,-9.52635 19.332721,-6.18705 31.411864,13.14466 5.845894,9.3559 12.300327,21.96102 14.343187,28.01139 3.64957,10.80898 3.57439,11.09553 -4.31447,16.44369 -9.528672,6.45985 -23.701123,7.08008 -32.52823,1.42343 z m 26.383254,-5.97784 c 5.088395,-2.93245 5.218782,-3.90436 1.597487,-11.90747 -10.294345,-22.75067 -21.440728,-39.51235 -25.832102,-38.84584 -12.130778,1.84128 -15.867989,27.52393 -6.182507,42.48711 7.62357,11.77773 18.972459,14.86189 30.417122,8.2662 z m 90.863188,1.19191 c 11.14014,-8.78016 12.86047,-13.0988 11.39994,-28.61805 -1.0749,-11.42168 -13.43961,-29.81132 -27.4903,-40.88538 -14.82339,-11.68309 -41.5666,-22.57185 -50.15861,-20.42263 -8.3995,2.10115 -21.669054,17.11761 -21.00122,23.76597 1.035168,10.30525 30.08717,52.71031 43.93602,64.13013 17.28127,14.25023 27.21829,14.71596 43.31417,2.02996 z m -38.76366,-8.19478 c -6.22873,-4.90918 -20.6359,-25.36871 -27.35197,-38.84236 -5.20323,-10.43858 -5.35493,-12.10382 -1.49812,-16.44369 5.87913,-6.61543 23.05237,-6.48331 35.64687,0.27454 29.82786,16.00425 38.20286,43.4723 16.443,53.92915 -11.11503,5.34136 -17.46115,5.63697 -23.23978,1.08256 z m 23.53619,-9.87885 c 5.04149,-4.94081 2.55684,-19.75167 -4.58964,-27.35875 -12.68118,-13.49847 -40.99493,-21.87237 -40.92573,-12.10391 0.0342,4.8953 10.93712,23.60017 21.28895,36.52455 6.37155,7.95498 8.83525,9.38433 14.06722,8.16116 3.48857,-0.81562 8.06021,-3.16595 10.1592,-5.22305 z M 70.535482,141.1126 c 4.496246,-1.4001 3.887625,-2.54103 -4.961858,-9.3012 C 57.385997,125.55678 53.262911,118.73451 43.674568,95.576112 27.903284,57.484244 28.882729,59.106533 26.449619,67.046145 c -3.903588,12.738068 -2.893088,43.066235 1.856647,55.723685 7.326936,19.52543 8.208477,20.27816 23.536368,20.09808 7.462389,-0.0874 15.874172,-0.87752 18.692848,-1.75531 z M 98.970688,101.22008 C 94.757428,95.066664 85.478852,85.306159 78.351623,79.529998 65.130272,68.814953 39.116718,55.260428 36.194354,57.563716 c -0.889796,0.701226 4.334599,15.309438 11.60976,32.462547 9.926506,23.404377 15.482065,33.020797 22.261472,38.533607 l 9.033912,7.34606 13.76583,-11.74893 13.765832,-11.74893 z m -22.020123,1.01853 c -2.122462,-2.70665 0.571423,-6.841298 4.457424,-6.841298 3.501643,0 3.524352,6.138908 0.02937,7.841488 -1.47339,0.7177 -3.492286,0.26747 -4.486431,-1.00019 z M 54.160212,96.248611 c -1.130904,-2.322756 -0.03426,-5.380448 2.687351,-7.491223 4.185017,-3.246008 4.973792,-3.167115 8.777729,0.877979 5.220513,5.551522 3.94989,8.961212 -3.670973,9.851076 -3.505476,0.409541 -6.655521,-0.899315 -7.794107,-3.237832 z m 2.976781,-16.066496 c -0.903083,-0.711772 -0.95326,-2.172439 -0.11151,-3.245866 2.020291,-2.576392 9.823992,-2.517883 9.823992,0.07391 0,2.503423 -7.46677,4.942168 -9.71249,3.172189 z"
       id="path1265" />
    <path
       style="fill:#0f96a9;stroke-width:2.55479"
       d="m 56.658369,234.02408 c -24.633867,-8.81912 -37.626348,-31.02266 -35.224716,-60.19742 0.726983,-8.83115 3.41542,-19.23527 5.974332,-23.12021 4.370035,-6.63453 4.291659,-7.80524 -1.290648,-19.27881 -3.359142,-6.90417 -6.599252,-20.24215 -7.452079,-30.67662 -1.666107,-20.385213 3.569781,-48.151781 9.413164,-49.919053 6.395652,-1.934368 33.573236,10.641951 50.505548,23.371147 8.99886,6.765108 20.388218,18.254491 25.30969,25.53202 7.3469,10.864076 10.58999,13.490666 18.12334,14.678156 21.63568,3.4104 50.83218,23.60826 64.21508,44.42333 14.8489,23.09514 12.43114,41.42247 -7.3198,55.48612 -9.50291,6.76652 -13.49062,8.08793 -24.40756,8.08793 -11.6941,0 -14.36359,-1.06616 -25.71205,-10.26918 l -12.66315,-10.26924 0.1531,8.74641 c 0.2001,11.42632 -5.05509,17.7075 -19.406102,23.19492 -14.480021,5.53674 -25.184322,5.59274 -40.218182,0.21024 z m 32.306211,-2.69212 c 27.5614,-8.23046 27.87247,-21.45909 1.584933,-67.40062 -9.106521,-15.91502 -11.630235,-18.6074 -16.50569,-17.60868 -3.165511,0.64839 -12.993738,1.19289 -21.84052,1.20993 -14.721293,0.0258 -16.396448,0.55998 -19.757905,6.26818 -2.020072,3.43053 -4.329215,12.43488 -5.131442,20.00969 -4.03064,38.0583 27.696921,67.66087 61.650624,57.5215 z m -30.9188,-19.58882 c -11.779694,-7.81217 -17.095899,-17.9079 -17.095899,-32.46609 0,-18.37973 12.202962,-31.73759 25.87035,-28.3187 7.373482,1.84448 31.684327,42.69237 31.684327,53.23711 0,5.4396 -14.434963,13.67899 -23.964743,13.67899 -3.986811,0 -11.409124,-2.75911 -16.494035,-6.13131 z m 29.023626,-4.14706 c 2.920374,-2.77338 2.949887,-5.33756 0.146342,-12.71261 -5.734474,-15.08526 -20.803474,-38.24758 -24.883188,-38.24758 -10.774846,0 -17.053383,24.80415 -9.986651,39.45345 6.412131,13.29234 26.00605,19.78542 34.723505,11.50674 z m 87.419254,3.36076 c 18.94975,-13.11341 20.08274,-28.6864 3.83995,-52.78076 -9.85256,-14.61517 -27.8658,-28.36411 -46.45206,-35.4555 -17.88387,-6.82342 -22.92481,-6.01642 -35.006242,5.60393 l -10.652791,10.24628 5.606241,11.99479 c 8.693442,18.60007 31.942972,50.77864 42.964742,59.46551 13.15217,10.36588 25.63774,10.65705 39.70016,0.92575 z m -39.55209,-14.06223 c -10.65555,-11.17783 -27.79881,-39.41766 -27.79881,-45.79251 0,-10.01587 15.92114,-13.28429 32.51741,-6.67541 25.9528,10.33481 40.70199,33.90558 30.5611,48.83988 -2.8387,4.18049 -18.60304,10.99936 -25.42909,10.99936 -1.55304,0 -5.98582,-3.31711 -9.85061,-7.37132 z m 23.36008,-2.96376 c 13.88277,-7.66386 5.07077,-29.80586 -16.40071,-41.21012 -9.70751,-5.15607 -24.43076,-6.88456 -27.31468,-3.20684 -1.79147,2.28457 19.6884,38.16895 26.32494,43.97855 5.58459,4.88879 9.16536,4.97907 17.39045,0.43847 z M 70.535482,141.1126 c 4.496246,-1.4001 3.887625,-2.54103 -4.961858,-9.3012 C 57.385997,125.55678 53.262911,118.73451 43.674568,95.576112 27.903284,57.484244 28.882729,59.106533 26.449619,67.046145 c -3.903588,12.738068 -2.893088,43.066235 1.856647,55.723685 7.326936,19.52543 8.208477,20.27816 23.536368,20.09808 7.462389,-0.0874 15.874172,-0.87752 18.692848,-1.75531 z M 98.970688,101.22008 C 94.757428,95.066664 85.478852,85.306159 78.351623,79.529998 65.130272,68.814953 39.116718,55.260428 36.194354,57.563716 c -0.889796,0.701226 4.334599,15.309438 11.60976,32.462547 9.926506,23.404377 15.482065,33.020797 22.261472,38.533607 l 9.033912,7.34606 13.76583,-11.74893 13.765832,-11.74893 z m -22.020123,1.01853 c -2.122462,-2.70665 0.571423,-6.841298 4.457424,-6.841298 3.501643,0 3.524352,6.138908 0.02937,7.841488 -1.47339,0.7177 -3.492286,0.26747 -4.486431,-1.00019 z M 54.160212,96.248611 c -1.130904,-2.322756 -0.03426,-5.380448 2.687351,-7.491223 4.185017,-3.246008 4.973792,-3.167115 8.777729,0.877979 5.220513,5.551522 3.94989,8.961212 -3.670973,9.851076 -3.505476,0.409541 -6.655521,-0.899315 -7.794107,-3.237832 z m 2.976781,-16.066496 c -0.903083,-0.711772 -0.95326,-2.172439 -0.11151,-3.245866 2.020291,-2.576392 9.823992,-2.517883 9.823992,0.07391 0,2.503423 -7.46677,4.942168 -9.71249,3.172189 z"
       id="path1263" />
    <path
       style="fill:#158897;stroke-width:2.55479"
       d="m 56.658369,234.02408 c -24.633867,-8.81912 -37.626348,-31.02266 -35.224716,-60.19742 0.726983,-8.83115 3.41542,-19.23527 5.974332,-23.12021 4.370035,-6.63453 4.291659,-7.80524 -1.290648,-19.27881 -3.359142,-6.90417 -6.599252,-20.24215 -7.452079,-30.67662 -1.666107,-20.385213 3.569781,-48.151781 9.413164,-49.919053 6.395652,-1.934368 33.573236,10.641951 50.505548,23.371147 8.99886,6.765108 20.388218,18.254491 25.30969,25.53202 7.3469,10.864076 10.58999,13.490666 18.12334,14.678156 21.63568,3.4104 50.83218,23.60826 64.21508,44.42333 14.8489,23.09514 12.43114,41.42247 -7.3198,55.48612 -9.50291,6.76652 -13.49062,8.08793 -24.40756,8.08793 -11.6941,0 -14.36359,-1.06616 -25.71205,-10.26918 l -12.66315,-10.26924 0.1531,8.74641 c 0.2001,11.42632 -5.05509,17.7075 -19.406102,23.19492 -14.480021,5.53674 -25.184322,5.59274 -40.218182,0.21024 z m 38.765479,-4.72749 c 20.670752,-8.31141 19.941622,-22.15288 -3.291629,-62.48745 l -12.007145,-20.84529 -20.307035,0.97223 c -11.168864,0.53491 -21.72444,1.31201 -23.456842,1.72735 -5.723861,1.37239 -10.619866,21.0703 -9.176397,36.9191 3.335323,36.62073 35.166718,57.01193 68.239048,43.71406 z M 58.780847,212.23061 C 41.869541,201.01523 35.981162,179.47134 45.116951,162.23839 c 5.104457,-9.62863 16.465034,-14.52534 23.310671,-10.04756 10.478906,6.85434 31.481506,47.28222 28.460626,54.78381 -1.90156,4.72202 -15.458699,10.89981 -23.91959,10.89981 -3.122676,0 -9.507186,-2.53974 -14.187811,-5.64384 z m 27.637227,-3.88212 c 5.352913,-4.21893 4.261524,-8.91164 -7.006728,-30.12744 -11.346238,-21.36265 -16.434853,-25.04642 -24.182032,-17.50587 -16.38302,15.94607 -3.777124,50.35501 18.447827,50.35501 5.108209,0 10.841631,-1.22477 12.740933,-2.7217 z m 84.033996,5.76112 c 10.12419,-4.71353 20.13996,-18.46171 20.13996,-27.64517 0,-12.15224 -10.91534,-30.66442 -25.88689,-43.9036 -14.56963,-12.88375 -38.5957,-24.48257 -50.71384,-24.48257 -6.67898,0 -26.997676,16.46049 -26.997676,21.87121 0,10.34395 35.038186,61.59341 49.011446,71.68777 10.02095,7.23914 22.31341,8.12142 34.447,2.47236 z m -37.1591,-18.63318 c -8.25388,-9.13589 -26.15521,-39.05747 -26.15521,-43.71777 0,-2.12911 2.03496,-5.47495 4.52215,-7.43529 14.62794,-11.52906 53.10683,8.26356 60.31449,31.02432 6.5701,20.74743 -23.83025,36.56691 -38.68143,20.12874 z m 25.77652,-2.17951 c 15.48026,-9.87963 -1.06912,-37.88548 -26.93998,-45.5894 -7.56314,-2.25223 -19.23629,-0.10932 -19.23629,3.53185 0,0.68644 6.595,11.36729 14.65554,23.73517 15.61761,23.96322 19.31478,26.11231 31.52073,18.32238 z M 70.535482,141.1126 c 4.496246,-1.4001 3.887625,-2.54103 -4.961858,-9.3012 C 57.385997,125.55678 53.262911,118.73451 43.674568,95.576112 27.903284,57.484244 28.882729,59.106533 26.449619,67.046145 c -3.903588,12.738068 -2.893088,43.066235 1.856647,55.723685 7.326936,19.52543 8.208477,20.27816 23.536368,20.09808 7.462389,-0.0874 15.874172,-0.87752 18.692848,-1.75531 z M 98.970688,101.22008 C 94.757428,95.066664 85.478852,85.306159 78.351623,79.529998 65.130272,68.814953 39.116718,55.260428 36.194354,57.563716 c -0.889796,0.701226 4.334599,15.309438 11.60976,32.462547 9.926506,23.404377 15.482065,33.020797 22.261472,38.533607 l 9.033912,7.34606 13.76583,-11.74893 13.765832,-11.74893 z m -22.020123,1.01853 c -2.122462,-2.70665 0.571423,-6.841298 4.457424,-6.841298 3.501643,0 3.524352,6.138908 0.02937,7.841488 -1.47339,0.7177 -3.492286,0.26747 -4.486431,-1.00019 z M 54.160212,96.248611 c -1.130904,-2.322756 -0.03426,-5.380448 2.687351,-7.491223 4.185017,-3.246008 4.973792,-3.167115 8.777729,0.877979 5.220513,5.551522 3.94989,8.961212 -3.670973,9.851076 -3.505476,0.409541 -6.655521,-0.899315 -7.794107,-3.237832 z m 2.976781,-16.066496 c -0.903083,-0.711772 -0.95326,-2.172439 -0.11151,-3.245866 2.020291,-2.576392 9.823992,-2.517883 9.823992,0.07391 0,2.503423 -7.46677,4.942168 -9.71249,3.172189 z"
       id="path1261" />
    <path
       style="fill:#1a7a87;stroke-width:2.55479"
       d="m 56.658369,234.02408 c -24.633867,-8.81912 -37.626348,-31.02266 -35.224716,-60.19742 0.726983,-8.83115 3.41542,-19.23527 5.974332,-23.12021 4.370035,-6.63453 4.291659,-7.80524 -1.290648,-19.27881 -3.359142,-6.90417 -6.599252,-20.24215 -7.452079,-30.67662 -1.666107,-20.385213 3.569781,-48.151781 9.413164,-49.919053 6.395652,-1.934368 33.573236,10.641951 50.505548,23.371147 8.99886,6.765108 20.388218,18.254491 25.30969,25.53202 7.3469,10.864076 10.58999,13.490666 18.12334,14.678156 21.63568,3.4104 50.83218,23.60826 64.21508,44.42333 14.8489,23.09514 12.43114,41.42247 -7.3198,55.48612 -9.50291,6.76652 -13.49062,8.08793 -24.40756,8.08793 -11.6941,0 -14.36359,-1.06616 -25.71205,-10.26918 l -12.66315,-10.26924 0.1531,8.74641 c 0.2001,11.42632 -5.05509,17.7075 -19.406102,23.19492 -14.480021,5.53674 -25.184322,5.59274 -40.218182,0.21024 z m 37.940879,-3.98093 c 5.452862,-2.03935 11.854862,-6.66559 14.226652,-10.28049 3.8698,-5.89807 3.80946,-8.01971 -0.58797,-20.67408 -2.69518,-7.7558 -8.399762,-19.71502 -12.676852,-26.57599 -4.27711,-6.86097 -9.353855,-16.31133 -11.281668,-21.00075 -2.237447,-5.44268 -4.703734,-7.94244 -6.819311,-6.91189 -1.82281,0.88788 -12.400902,2.17308 -23.506865,2.856 l -20.192667,1.24161 -3.848543,9.07238 c -5.463967,12.88054 -3.05869,40.60615 4.525571,52.16619 13.804602,21.04119 36.966214,28.7822 60.161633,20.10702 z M 59.681704,212.94952 c -22.823789,-14.14987 -24.837,-53.38634 -3.13904,-61.17819 11.854196,-4.25694 19.782004,3.88692 35.188728,36.14753 7.942606,16.63123 7.262706,20.60561 -4.458656,26.06275 -11.097951,5.16692 -18.009043,4.90841 -27.591032,-1.03209 z m 27.887682,-5.8753 c 4.58348,-3.09767 4.467874,-4.19528 -1.831024,-17.38475 -15.141895,-31.70602 -24.00465,-39.37727 -32.74692,-28.34416 -7.275031,9.18128 -7.279102,24.99774 -0.0089,36.10858 9.84065,15.03999 21.690963,18.33613 34.587236,9.62033 z m 86.120894,6.01115 c 32.64047,-18.10996 12.91533,-66.19359 -36.27752,-88.43299 -20.3254,-9.18887 -27.57993,-8.63738 -40.322382,3.06534 -12.950278,11.89351 -12.480978,15.26206 6.120592,43.93212 29.27528,45.12129 46.05557,54.98658 70.47931,41.43553 z m -42.55477,-20.72699 c -9.33042,-11.63584 -23.99775,-36.68965 -23.99775,-40.99139 0,-1.70523 2.53817,-4.91079 5.64036,-7.12355 17.11268,-12.20592 60.54751,14.97057 60.54751,37.88357 0,9.39769 -13.00812,19.87081 -24.68045,19.87081 -8.3751,0 -10.8906,-1.38487 -17.50967,-9.63944 z m 25.04695,2.78315 c 9.18033,-3.87233 11.95364,-10.28132 8.6426,-19.97264 -5.73276,-16.77962 -37.99091,-35.02878 -47.98925,-27.14858 -4.81812,3.79743 -1.4613,11.52822 15.31287,35.26569 10.07041,14.25089 13.88916,16.13459 24.03378,11.85553 z M 70.535482,141.1126 c 4.496246,-1.4001 3.887625,-2.54103 -4.961858,-9.3012 C 57.385997,125.55678 53.262911,118.73451 43.674568,95.576112 27.903284,57.484244 28.882729,59.106533 26.449619,67.046145 c -3.903588,12.738068 -2.893088,43.066235 1.856647,55.723685 7.326936,19.52543 8.208477,20.27816 23.536368,20.09808 7.462389,-0.0874 15.874172,-0.87752 18.692848,-1.75531 z M 98.970688,101.22008 C 94.757428,95.066664 85.478852,85.306159 78.351623,79.529998 65.130272,68.814953 39.116718,55.260428 36.194354,57.563716 c -0.889796,0.701226 4.334599,15.309438 11.60976,32.462547 9.926506,23.404377 15.482065,33.020797 22.261472,38.533607 l 9.033912,7.34606 13.76583,-11.74893 13.765832,-11.74893 z m -22.020123,1.01853 c -2.122462,-2.70665 0.571423,-6.841298 4.457424,-6.841298 3.501643,0 3.524352,6.138908 0.02937,7.841488 -1.47339,0.7177 -3.492286,0.26747 -4.486431,-1.00019 z M 54.160212,96.248611 c -1.130904,-2.322756 -0.03426,-5.380448 2.687351,-7.491223 4.185017,-3.246008 4.973792,-3.167115 8.777729,0.877979 5.220513,5.551522 3.94989,8.961212 -3.670973,9.851076 -3.505476,0.409541 -6.655521,-0.899315 -7.794107,-3.237832 z m 2.976781,-16.066496 c -0.903083,-0.711772 -0.95326,-2.172439 -0.11151,-3.245866 2.020291,-2.576392 9.823992,-2.517883 9.823992,0.07391 0,2.503423 -7.46677,4.942168 -9.71249,3.172189 z"
       id="path1259" />
    <path
       style="fill:#585959;stroke-width:2.55479"
       d="m 56.658369,234.02408 c -24.633867,-8.81912 -37.626348,-31.02266 -35.224716,-60.19742 0.726983,-8.83115 3.41542,-19.23527 5.974332,-23.12021 4.370035,-6.63453 4.291659,-7.80524 -1.290648,-19.27881 -3.359142,-6.90417 -6.599252,-20.24215 -7.452079,-30.67662 -1.666107,-20.385213 3.569781,-48.151781 9.413164,-49.919053 6.395652,-1.934368 33.573236,10.641951 50.505548,23.371147 8.99886,6.765108 20.388218,18.254491 25.30969,25.53202 7.3469,10.864076 10.58999,13.490666 18.12334,14.678156 21.63568,3.4104 50.83218,23.60826 64.21508,44.42333 14.8489,23.09514 12.43114,41.42247 -7.3198,55.48612 -9.50291,6.76652 -13.49062,8.08793 -24.40756,8.08793 -11.6941,0 -14.36359,-1.06616 -25.71205,-10.26918 l -12.66315,-10.26924 0.1531,8.74641 c 0.2001,11.42632 -5.05509,17.7075 -19.406102,23.19492 -14.480021,5.53674 -25.184322,5.59274 -40.218182,0.21024 z m 38.076379,-4.03159 c 5.740012,-2.14679 11.929462,-6.86528 14.432862,-11.00289 3.96669,-6.55602 3.91621,-8.50987 -0.53121,-20.56754 -2.70284,-7.32786 -9.180792,-20.49297 -14.395432,-29.25584 -5.214637,-8.76286 -10.342318,-18.183 -11.394853,-20.93375 -1.636815,-4.2777 -2.959538,-4.68782 -9.142487,-2.8351 -3.975846,1.1914 -14.332972,2.16615 -23.01584,2.16615 -15.294387,0 -15.917153,0.24558 -19.956798,7.86547 -4.975676,9.38573 -5.484312,35.99317 -0.894601,46.79738 10.768126,25.34834 39.031379,37.44046 64.898379,27.76612 z M 65.088653,215.65161 c -14.976277,-4.76922 -25.785628,-23.90607 -23.204682,-41.08154 2.774423,-18.463 14.992044,-27.94864 27.268872,-21.17132 5.284987,2.9176 23.922605,34.02982 27.891935,46.56073 1.51756,4.79083 0.16601,7.02936 -7.189651,11.90748 -9.436348,6.25804 -14.546963,7.039 -24.766474,3.78465 z m 20.292711,-7.41652 7.341888,-5.10322 -9.562313,-18.51224 C 69.968113,159.07881 65.213608,153.68441 58.420741,156.54967 c -6.290847,2.65355 -11.741566,13.72721 -11.652186,23.67268 0.126852,14.11862 16.048911,33.11595 27.755107,33.11595 1.933693,0 6.819663,-2.29646 10.857702,-5.10321 z m 88.133376,4.99706 c 9.96538,-5.59268 17.08478,-17.53044 17.04917,-28.58783 -0.062,-19.17717 -24.91147,-47.2252 -53.15115,-59.99194 -20.06888,-9.07289 -27.30944,-8.57694 -40.305372,2.76058 -9.035214,7.88226 -10.430311,10.44078 -8.966236,16.44371 2.253934,9.24146 18.407428,35.09745 33.138708,53.04327 18.56646,22.61796 32.99572,27.12948 52.23488,16.33221 z m -40.61866,-18.60566 c -8.68007,-11.0086 -25.75832,-39.68066 -25.75832,-43.24479 0,-6.15258 10.77722,-11.30511 20.45539,-9.77958 21.60999,3.4064 40.98771,19.53584 44.5093,37.04821 1.72773,8.59173 1.04781,10.22604 -6.84105,16.44369 -12.25927,9.6622 -24.51784,9.48513 -32.36532,-0.46741 z m 29.58389,-4.18634 c 4.84126,-5.13452 5.13875,-7.09429 2.32647,-15.32578 -5.97802,-17.49752 -37.61947,-35.25232 -48.10143,-26.99093 -4.97457,3.92067 -1.83731,11.16656 15.27963,35.29039 8.80655,12.41146 11.1385,14.22039 17.55013,13.61353 4.06677,-0.3851 9.89212,-3.34912 12.9452,-6.58721 z M 70.535482,141.1126 c 4.496246,-1.4001 3.887625,-2.54103 -4.961858,-9.3012 C 57.385997,125.55678 53.262911,118.73451 43.674568,95.576112 27.903284,57.484244 28.882729,59.106533 26.449619,67.046145 c -3.903588,12.738068 -2.893088,43.066235 1.856647,55.723685 7.326936,19.52543 8.208477,20.27816 23.536368,20.09808 7.462389,-0.0874 15.874172,-0.87752 18.692848,-1.75531 z M 98.970688,101.22008 C 94.757428,95.066664 85.478852,85.306159 78.351623,79.529998 65.130272,68.814953 39.116718,55.260428 36.194354,57.563716 c -0.889796,0.701226 4.334599,15.309438 11.60976,32.462547 9.926506,23.404377 15.482065,33.020797 22.261472,38.533607 l 9.033912,7.34606 13.76583,-11.74893 13.765832,-11.74893 z m -22.020123,1.01853 c -2.122462,-2.70665 0.571423,-6.841298 4.457424,-6.841298 3.501643,0 3.524352,6.138908 0.02937,7.841488 -1.47339,0.7177 -3.492286,0.26747 -4.486431,-1.00019 z M 54.160212,96.248611 c -1.130904,-2.322756 -0.03426,-5.380448 2.687351,-7.491223 4.185017,-3.246008 4.973792,-3.167115 8.777729,0.877979 5.220513,5.551522 3.94989,8.961212 -3.670973,9.851076 -3.505476,0.409541 -6.655521,-0.899315 -7.794107,-3.237832 z m 2.976781,-16.066496 c -0.903083,-0.711772 -0.95326,-2.172439 -0.11151,-3.245866 2.020291,-2.576392 9.823992,-2.517883 9.823992,0.07391 0,2.503423 -7.46677,4.942168 -9.71249,3.172189 z"
       id="path1257" />
    <path
       style="fill:#1d6d78;stroke-width:2.55479"
       d="M 56.23554,233.87486 C 41.290214,228.52701 28.266205,214.78578 23.593982,199.43569 19.260836,185.1996 21.236955,160.13943 27.43794,150.68838 c 4.332632,-6.60342 4.249786,-7.81166 -1.320603,-19.26074 -3.359142,-6.90417 -6.599252,-20.24215 -7.452079,-30.67662 -1.666107,-20.385213 3.569781,-48.151781 9.413164,-49.919053 6.395652,-1.934368 33.573236,10.641951 50.505548,23.371147 8.99886,6.765108 20.475728,18.38391 25.50416,25.819596 5.02843,7.43567 11.02324,13.51941 13.32181,13.51941 2.29856,0 10.0314,2.16807 17.18409,4.81795 39.68414,14.70202 69.46575,54.94531 59.05706,79.80258 -1.85905,4.43964 -8.49153,11.7117 -14.73881,16.16009 -9.50291,6.76652 -13.49062,8.08793 -24.40756,8.08793 -11.6941,0 -14.36359,-1.06616 -25.71205,-10.26918 l -12.66315,-10.26924 0.1531,8.74641 c 0.2001,11.42632 -5.05509,17.7075 -19.406102,23.19492 -14.580225,5.57506 -25.187382,5.59106 -40.64101,0.0642 z m 38.499208,-3.88237 c 5.740012,-2.14679 11.929462,-6.86528 14.432862,-11.00289 3.96669,-6.55602 3.91621,-8.50987 -0.53121,-20.56754 -2.70284,-7.32786 -9.180792,-20.49297 -14.395432,-29.25584 -5.214637,-8.76286 -10.342318,-18.183 -11.394853,-20.93375 -1.636815,-4.2777 -2.959538,-4.68782 -9.142487,-2.8351 -3.975846,1.1914 -14.332972,2.16615 -23.01584,2.16615 -15.294387,0 -15.917153,0.24558 -19.956798,7.86547 -4.975676,9.38573 -5.484312,35.99317 -0.894601,46.79738 10.768126,25.34834 39.031379,37.44046 64.898379,27.76612 z M 65.088653,215.65161 c -14.976277,-4.76922 -25.785628,-23.90607 -23.204682,-41.08154 2.774423,-18.463 14.992044,-27.94864 27.268872,-21.17132 5.284987,2.9176 23.922605,34.02982 27.891935,46.56073 1.51756,4.79083 0.16601,7.02936 -7.189651,11.90748 -9.436348,6.25804 -14.546963,7.039 -24.766474,3.78465 z m 20.292711,-7.41652 7.341888,-5.10322 -9.562313,-18.51224 C 69.968113,159.07881 65.213608,153.68441 58.420741,156.54967 c -6.290847,2.65355 -11.741566,13.72721 -11.652186,23.67268 0.126852,14.11862 16.048911,33.11595 27.755107,33.11595 1.933693,0 6.819663,-2.29646 10.857702,-5.10321 z m 88.133376,4.99706 c 9.96538,-5.59268 17.08478,-17.53044 17.04917,-28.58783 -0.062,-19.17717 -24.91147,-47.2252 -53.15115,-59.99194 -20.06888,-9.07289 -27.30944,-8.57694 -40.305372,2.76058 -9.035214,7.88226 -10.430311,10.44078 -8.966236,16.44371 2.253934,9.24146 18.407428,35.09745 33.138708,53.04327 18.56646,22.61796 32.99572,27.12948 52.23488,16.33221 z m -40.61866,-18.60566 c -8.68007,-11.0086 -25.75832,-39.68066 -25.75832,-43.24479 0,-6.15258 10.77722,-11.30511 20.45539,-9.77958 21.60999,3.4064 40.98771,19.53584 44.5093,37.04821 1.72773,8.59173 1.04781,10.22604 -6.84105,16.44369 -12.25927,9.6622 -24.51784,9.48513 -32.36532,-0.46741 z m 29.58389,-4.18634 c 4.84126,-5.13452 5.13875,-7.09429 2.32647,-15.32578 -5.97802,-17.49752 -37.61947,-35.25232 -48.10143,-26.99093 -4.97457,3.92067 -1.83731,11.16656 15.27963,35.29039 8.80655,12.41146 11.1385,14.22039 17.55013,13.61353 4.06677,-0.3851 9.89212,-3.34912 12.9452,-6.58721 z M 73.916299,140.92184 c 0.908061,-1.15797 -2.904582,-6.006 -8.472532,-10.77343 C 57.546378,123.38653 52.648522,114.99668 43.170614,91.995219 36.488329,75.778341 30.665046,62.084689 30.229982,61.564888 c -2.122561,-2.535754 -4.312655,3.058646 -6.85261,17.504399 -3.247827,18.471737 -0.08639,38.198393 8.603146,53.680923 l 5.768001,10.27714 h 17.258386 c 9.492102,0 18.001333,-0.94747 18.909394,-2.10551 z m 13.226646,-10.58891 c 2.199785,-3.23962 7.691893,-8.33885 12.204693,-11.33167 l 8.205072,-5.44153 -6.47061,-10.21144 C 91.806823,88.710776 70.117703,70.541591 51.279165,61.627892 42.344642,57.400406 34.441526,54.409001 33.716688,54.980242 c -0.724862,0.571563 4.651594,15.257251 11.947614,32.635436 10.663458,25.398932 15.285733,33.264982 23.564844,40.102042 5.664633,4.67792 11.112676,8.5053 12.106757,8.5053 0.994088,0 3.607255,-2.65052 5.807042,-5.89009 z M 77.319759,98.799483 c 0.911039,-1.871174 2.81286,-3.402171 4.226277,-3.402171 1.413417,0 2.569853,1.530997 2.569853,3.402171 0,1.871157 -1.901831,3.402157 -4.226286,3.402157 -2.574395,0 -3.578852,-1.32975 -2.569844,-3.402157 z M 55.59319,95.772333 c -2.286376,-3.367057 -1.965034,-5.119281 1.33464,-7.277646 3.565222,-2.332078 5.08798,-2.069197 8.475313,1.462907 2.271081,2.368145 3.742016,5.326305 3.268759,6.573779 -1.594421,4.202677 -10.042487,3.712367 -13.078712,-0.75904 z m 1.184227,-18.519767 c 0.978197,-1.247462 3.644585,-2.268109 5.925299,-2.268109 2.280723,0 4.146767,1.020647 4.146767,2.268109 0,1.247475 -2.666386,2.26811 -5.925299,2.26811 -3.25892,0 -5.124964,-1.020635 -4.146767,-2.26811 z"
       id="path1255" />
    <path
       style="fill:#294b4f;stroke-width:2.55479"
       d="M 56.23554,233.87486 C 41.290214,228.52701 28.266205,214.78578 23.593982,199.43569 19.260836,185.1996 21.236955,160.13943 27.43794,150.68838 c 4.332632,-6.60342 4.249786,-7.81166 -1.320603,-19.26074 -3.359142,-6.90417 -6.599252,-20.24215 -7.452079,-30.67662 -1.666107,-20.385213 3.569781,-48.151781 9.413164,-49.919053 6.395652,-1.934368 33.573236,10.641951 50.505548,23.371147 8.99886,6.765108 20.475728,18.38391 25.50416,25.819596 5.02843,7.43567 11.02324,13.51941 13.32181,13.51941 2.29856,0 10.0314,2.16807 17.18409,4.81795 39.68414,14.70202 69.46575,54.94531 59.05706,79.80258 -1.85905,4.43964 -8.49153,11.7117 -14.73881,16.16009 -9.50291,6.76652 -13.49062,8.08793 -24.40756,8.08793 -11.6941,0 -14.36359,-1.06616 -25.71205,-10.26918 l -12.66315,-10.26924 0.1531,8.74641 c 0.2001,11.42632 -5.05509,17.7075 -19.406102,23.19492 -14.580225,5.57506 -25.187382,5.59106 -40.64101,0.0642 z m 42.524898,-5.29706 c 14.696032,-7.80563 16.474462,-14.54945 8.793602,-33.3456 -3.55388,-8.69685 -11.252562,-23.80031 -17.108183,-33.56319 -9.930388,-16.55665 -11.130531,-17.64338 -17.840902,-16.15418 -3.956889,0.87811 -14.059065,1.69828 -22.44928,1.82263 -14.672021,0.2173 -15.418909,0.53555 -19.546025,8.3204 -8.823429,16.64378 -5.50513,44.60129 7.162305,60.3442 14.030414,17.43689 41.26363,23.05226 60.988483,12.57574 z M 61.953161,213.4881 c -16.332029,-7.95143 -24.289683,-27.4694 -18.321583,-44.93793 4.057623,-11.87654 10.316297,-16.88994 19.982527,-16.00657 8.352586,0.76335 18.001571,13.77608 29.050047,39.17726 l 5.888496,13.53812 -6.498952,5.03468 c -9.566766,7.41132 -19.314488,8.44578 -30.100535,3.19444 z m 22.305635,-3.61021 c 4.669662,-1.9032 8.490291,-4.51256 8.490291,-5.7986 0,-4.24704 -20.562164,-41.69572 -25.075939,-45.66933 -5.901659,-5.1954 -13.582209,-1.91854 -17.787375,7.58889 -6.973453,15.76632 -1.662143,33.52686 12.686474,42.42243 9.437931,5.85119 10.696806,5.93574 21.686549,1.45661 z m 85.495964,5.74074 c 5.15842,-2.4788 12.02847,-7.8334 15.26679,-11.899 7.80012,-9.7929 6.46772,-28.21037 -3.13485,-43.33234 -9.49124,-14.94665 -38.75658,-36.17487 -56.47385,-40.96453 l -13.9585,-3.77351 -12.230362,10.15487 c -7.795993,6.47302 -12.230364,12.24333 -12.230364,15.91508 0,7.6256 30.082766,53.47814 42.719826,65.11412 15.15443,13.95391 24.85603,16.0825 40.04131,8.78531 z m -36.26087,-20.99214 c -8.39671,-10.73003 -26.35613,-40.7883 -26.35613,-44.11158 0,-1.56577 3.26348,-4.53216 7.25217,-6.59196 6.7494,-3.48549 8.1333,-3.47996 19.96119,0.0803 32.75212,9.85835 48.86527,42.29577 27.0049,54.36359 -10.94698,6.04323 -21.29301,4.65438 -27.86213,-3.74029 z m 28.2087,-2.12872 c 7.02358,-5.94185 7.33104,-10.56601 1.44122,-21.67607 -5.75604,-10.85778 -11.77165,-15.92802 -25.40346,-21.41145 -12.13647,-4.88186 -24.84713,-4.03513 -24.84713,1.65527 0,3.44762 17.26888,31.75662 25.16836,41.25872 5.43591,6.53874 16.02512,6.61646 23.64101,0.1736 z M 73.916299,140.92184 c 0.908061,-1.15797 -2.904582,-6.006 -8.472532,-10.77343 C 57.546378,123.38653 52.648522,114.99668 43.170614,91.995219 36.488329,75.778341 30.665046,62.084689 30.229982,61.564888 c -2.122561,-2.535754 -4.312655,3.058646 -6.85261,17.504399 -3.247827,18.471737 -0.08639,38.198393 8.603146,53.680923 l 5.768001,10.27714 h 17.258386 c 9.492102,0 18.001333,-0.94747 18.909394,-2.10551 z m 13.226646,-10.58891 c 2.199785,-3.23962 7.691893,-8.33885 12.204693,-11.33167 l 8.205072,-5.44153 -6.47061,-10.21144 C 91.806823,88.710776 70.117703,70.541591 51.279165,61.627892 42.344642,57.400406 34.441526,54.409001 33.716688,54.980242 c -0.724862,0.571563 4.651594,15.257251 11.947614,32.635436 10.663458,25.398932 15.285733,33.264982 23.564844,40.102042 5.664633,4.67792 11.112676,8.5053 12.106757,8.5053 0.994088,0 3.607255,-2.65052 5.807042,-5.89009 z M 77.319759,98.799483 c 0.911039,-1.871174 2.81286,-3.402171 4.226277,-3.402171 1.413417,0 2.569853,1.530997 2.569853,3.402171 0,1.871157 -1.901831,3.402157 -4.226286,3.402157 -2.574395,0 -3.578852,-1.32975 -2.569844,-3.402157 z M 55.59319,95.772333 c -2.286376,-3.367057 -1.965034,-5.119281 1.33464,-7.277646 3.565222,-2.332078 5.08798,-2.069197 8.475313,1.462907 2.271081,2.368145 3.742016,5.326305 3.268759,6.573779 -1.594421,4.202677 -10.042487,3.712367 -13.078712,-0.75904 z m 1.184227,-18.519767 c 0.978197,-1.247462 3.644585,-2.268109 5.925299,-2.268109 2.280723,0 4.146767,1.020647 4.146767,2.268109 0,1.247475 -2.666386,2.26811 -5.925299,2.26811 -3.25892,0 -5.124964,-1.020635 -4.146767,-2.26811 z"
       id="path1253" />
    <path
       style="fill:#2c3e41;stroke-width:2.55479"
       d="M 56.443349,233.94821 C 43.8446,229.43893 32.938282,219.51951 26.30171,206.53404 c -5.859347,-11.46477 -5.255474,-46.68874 0.957094,-55.82759 4.571504,-6.72481 4.502884,-7.64914 -1.431143,-19.27881 -5.105541,-10.0059 -6.249031,-16.93296 -6.322178,-38.298373 -0.107023,-31.255581 4.128103,-44.089646 13.79058,-41.790932 25.322877,6.024396 58.476295,29.20273 72.116927,50.418595 4.35336,6.77103 9.52784,11.78519 12.16192,11.78519 2.52162,0 12.304,3.24272 21.73865,7.20603 38.03821,15.97912 64.35995,53.47963 54.33753,77.4145 -4.96975,11.86838 -23.52819,24.24802 -36.35048,24.24802 -13.32224,0 -20.72912,-3.05041 -32.13421,-13.23408 l -9.30982,-8.31283 -0.0433,10.3491 c -0.0342,8.3712 -1.59671,11.52249 -8.1732,16.48837 -8.077322,6.09918 -22.521726,10.63166 -33.57774,10.53631 -3.17596,-0.0257 -11.104722,-1.95757 -17.619472,-4.28933 z m 41.400459,-4.73649 c 19.361222,-9.30383 18.923062,-22.43459 -1.96697,-58.9459 -6.073462,-10.61507 -11.86268,-21.19214 -12.864925,-23.50462 -1.265426,-2.91971 -3.353766,-3.71514 -6.834053,-2.60314 -2.756477,0.88075 -13.429145,1.95379 -23.717046,2.38449 -18.059071,0.75601 -18.847023,1.04179 -22.808716,8.27335 -2.284042,4.16917 -4.181166,15.12949 -4.278736,24.71967 -0.150993,14.83985 1.024123,19.07789 8.47267,30.55693 5.09028,7.84464 12.648949,15.45249 18.373536,18.49301 12.515374,6.64739 32.522692,6.92199 45.62424,0.62621 z M 55.235351,208.71503 C 34.8236,191.4932 40.34153,152.09973 63.165572,152.09973 c 5.894064,0 8.683988,2.94157 18.587392,19.59788 15.034654,25.28642 16.949554,35.14933 7.804435,40.19783 -10.980159,6.06156 -24.896649,4.77198 -34.322048,-3.18041 z m 31.97273,0.40633 6.607527,-4.21695 -6.657833,-14.4948 c -9.549311,-20.78986 -19.801671,-36.0417 -24.227354,-36.0417 -11.088366,0 -18.962719,18.40667 -14.998725,35.06027 2.452353,10.30288 17.300999,23.91018 26.091423,23.91018 3.617583,0 9.55081,-1.89766 13.184962,-4.217 z m 82.546679,6.49733 c 21.60684,-10.38298 27.12053,-32.27764 13.53819,-53.75975 -9.58103,-15.15355 -32.74681,-33.17144 -52.38499,-40.74406 -18.26201,-7.04196 -22.6737,-5.99412 -37.698022,8.95375 -10.285863,10.23355 -9.792017,12.6451 8.340172,40.72755 14.95325,23.15896 25.76078,35.71348 37.37384,43.41514 10.70117,7.09686 18.27192,7.4425 30.83081,1.40737 z m -34.86358,-20.92874 c -4.13028,-4.26793 -12.10663,-15.60173 -17.72519,-25.18619 -12.12194,-20.67826 -10.79847,-26.47635 6.04347,-26.47635 12.21064,0 23.06931,4.19702 33.21759,12.83909 10.95979,9.33307 14.02084,15.08629 14.02084,26.35193 0,11.39 -5.38155,16.65856 -19.24841,18.84444 -7.60734,1.19912 -9.81549,0.33625 -16.3083,-6.37292 z m 30.17447,-4.58218 c 10.39705,-15.31152 -19.6214,-46.50044 -42.73422,-44.40052 -11.68808,1.06193 -11.28224,6.19201 2.15865,27.28682 15.94975,25.03233 18.30085,26.98258 28.98823,24.04622 4.65182,-1.27813 9.86614,-4.39774 11.58734,-6.93252 z M 73.916299,140.9219 c 0.908061,-1.15797 -2.904582,-6.006 -8.472532,-10.77342 C 57.546378,123.38659 52.648522,114.99675 43.170614,91.995284 36.488329,75.778405 30.665046,62.084753 30.229982,61.564953 c -2.122561,-2.535755 -4.312655,3.058645 -6.85261,17.504398 -3.247827,18.471738 -0.08639,38.198389 8.603146,53.680929 l 5.768001,10.27713 h 17.258386 c 9.492102,0 18.001333,-0.94747 18.909394,-2.10551 z m 13.226646,-10.58891 c 2.199785,-3.23962 7.691893,-8.33885 12.204693,-11.33167 l 8.205072,-5.44152 -6.47061,-10.21144 C 91.806823,88.71084 70.117703,70.541655 51.279165,61.627956 42.344642,57.400471 34.441526,54.409065 33.716688,54.980306 c -0.724862,0.571563 4.651594,15.257251 11.947614,32.635437 10.663458,25.398927 15.285733,33.264977 23.564844,40.102037 5.664633,4.67791 11.112676,8.5053 12.106757,8.5053 0.994088,0 3.607255,-2.65052 5.807042,-5.89009 z M 77.319759,98.799547 c 0.911039,-1.871174 2.81286,-3.40217 4.226277,-3.40217 1.413417,0 2.569853,1.530996 2.569853,3.40217 0,1.871163 -1.901831,3.402153 -4.226286,3.402153 -2.574395,0 -3.578852,-1.32975 -2.569844,-3.402153 z M 55.59319,95.772397 c -2.286376,-3.367057 -1.965034,-5.11928 1.33464,-7.277645 3.565222,-2.332079 5.08798,-2.069198 8.475313,1.462907 2.271081,2.368145 3.742016,5.326304 3.268759,6.573779 -1.594421,4.202672 -10.042487,3.712372 -13.078712,-0.759041 z m 1.184227,-18.519766 c 0.978197,-1.247462 3.644585,-2.26811 5.925299,-2.26811 2.280723,0 4.146767,1.020648 4.146767,2.26811 0,1.247475 -2.666386,2.268109 -5.925299,2.268109 -3.25892,0 -5.124964,-1.020634 -4.146767,-2.268109 z"
       id="path1251" />
    <path
       style="fill:#302f2e;stroke-width:2.55479"
       d="M 60.101743,234.97901 C 45.106843,230.76516 36.866252,224.1665 29.257022,210.28003 20.123483,193.6117 18.773474,172.39995 25.806794,156.06888 c 5.547941,-12.88209 5.549115,-13.19911 0.09642,-25.92889 -7.423586,-17.33106 -9.426454,-39.463735 -5.311305,-58.692582 5.029859,-23.503072 5.150457,-23.569422 26.962163,-14.843783 21.694487,8.678786 40.783001,23.2353 55.007678,41.94781 8.82674,11.611475 12.24776,14.030475 26.13291,18.478305 30.60049,9.80222 54.69976,30.59839 63.68358,54.95487 6.1685,16.72377 3.20743,28.401 -10.04018,39.59445 -18.49879,15.63047 -44.11276,13.6653 -58.36739,-4.47803 -3.18528,-4.05422 -6.66637,-7.37132 -7.73575,-7.37132 -1.06938,0 -1.47227,4.67792 -0.89533,10.39531 0.89849,8.90367 -0.10736,11.34653 -7.01001,17.02503 -7.4672,6.14296 -22.625579,11.23087 -32.846909,11.02507 -2.374132,-0.0451 -9.29556,-1.48606 -15.380946,-3.19611 z m 42.619277,-8.26711 c 15.15849,-10.48976 13.32903,-22.1013 -9.692982,-61.52081 -4.901684,-8.39294 -8.912149,-16.82527 -8.912149,-18.73861 0,-2.76793 -2.272355,-3.19238 -11.120858,-2.07717 -6.116475,0.77086 -17.447548,1.54842 -25.180174,1.72786 l -14.059307,0.32596 -5.091984,11.34048 c -7.052964,15.70781 -4.789126,36.62119 5.762804,53.23681 10.393988,16.36692 22.400816,22.74441 42.820617,22.74441 13.01201,0 16.824041,-1.05336 25.474033,-7.03925 z M 60.354344,213.14767 c -8.348286,-3.8317 -16.850477,-19.63106 -16.967421,-31.52992 -0.185335,-18.85968 6.956495,-29.51802 19.77922,-29.51802 5.814669,0 8.518001,2.69938 16.726837,16.70247 5.385193,9.18637 11.431898,21.53714 13.437128,27.44614 3.4738,10.23664 3.32735,10.94701 -3.102982,15.05085 -7.311421,4.66622 -21.782782,5.56169 -29.872782,1.84848 z m 27.001703,-4.12082 c 6.394731,-4.08116 6.546781,-4.77764 2.847153,-13.04154 -8.522682,-19.03719 -23.192103,-41.61747 -27.037057,-41.61747 -13.574695,0 -21.827377,28.33542 -12.425952,42.66435 10.329251,15.74303 23.818703,20.16192 36.615856,11.99466 z m 88.811593,2.93302 c 15.4066,-10.97029 19.16914,-21.88419 13.16053,-38.17443 -8.29262,-22.48255 -34.57741,-45.25777 -62.97694,-54.56816 -14.1927,-4.65284 -19.26327,-3.19219 -32.237462,9.28692 l -10.653731,10.24713 4.967274,10.64335 c 5.561897,11.91746 33.190199,51.24258 40.989619,58.3431 16.14637,14.69957 30.24763,15.97308 46.75071,4.22209 z M 138.3431,198.20919 c -6.75705,-6.05076 -21.69016,-27.69225 -26.4589,-38.34499 -5.37149,-11.99916 -2.10546,-16.83685 11.36699,-16.83685 41.30277,0 66.86684,52.17096 28.42531,58.01013 -6.32736,0.96111 -9.96286,0.18966 -13.3334,-2.82829 z m 24.4794,-6.01282 c 15.21212,-13.91681 -14.25856,-48.21337 -39.85721,-46.38387 -6.261,0.44748 -8.87031,1.92563 -9.49615,5.37955 -0.89625,4.94647 18.79715,37.06441 27.22891,44.40763 5.74628,5.0044 14.38708,3.67528 22.12445,-3.40331 z M 74.204359,140.55453 c 1.0665,-1.3601 -2.585547,-6.20813 -8.115647,-10.77348 C 58.164176,123.23896 53.439517,115.23366 43.787841,91.995219 29.449234,57.471895 29.138797,56.952352 26.371896,62.847451 18.663456,79.270903 21.1116,114.0562 31.402553,134.32718 l 4.416791,8.70017 h 18.22297 c 10.050284,0 19.092608,-1.10904 20.162045,-2.47282 z m 9.91153,-6.22222 c 0,-1.03987 5.30932,-6.39826 11.798499,-11.90747 l 11.798492,-10.01677 -6.70294,-10.0257 C 91.41717,88.034285 70.065774,70.547128 51.249715,61.627892 c -8.91833,-4.227486 -16.808189,-7.218891 -17.533027,-6.64765 -0.724862,0.571563 4.651594,15.257251 11.947614,32.635436 10.663458,25.398932 15.285733,33.264982 23.564844,40.102042 10.041656,8.29256 14.886743,10.44534 14.886743,6.61459 z m -5.755471,-34.13106 c 0,-1.247471 1.294979,-2.898886 2.877735,-3.669877 1.582755,-0.770938 2.877736,-0.381252 2.877736,0.866339 0,1.247462 -1.294981,2.898878 -2.877736,3.669878 -1.582756,0.77092 -2.877735,0.38125 -2.877735,-0.86634 z M 57.257037,98.421437 c -3.354395,-2.643761 -2.06647,-9.2983 2.039967,-10.540289 4.104203,-1.241243 11.461965,8.215086 8.319214,10.692022 -2.299494,1.81241 -7.972599,1.72928 -10.359181,-0.151733 z M 56.777384,77.252566 c 0.978198,-1.247462 3.72101,-2.268109 6.095136,-2.268109 2.374133,0 3.51626,1.020647 2.538062,2.268109 -0.978197,1.247475 -3.721002,2.26811 -6.095135,2.26811 -2.374133,0 -3.51626,-1.020635 -2.538063,-2.26811 z"
       id="path1249" />
    <path
       style="fill:#37120d;stroke-width:2.55479"
       d="m 49.123265,230.43379 c -10.822844,-5.79629 -25.51699,-25.49871 -25.345833,-33.98455 0.05139,-2.56179 2.472177,0.76927 5.378903,7.40251 6.062922,13.83561 20.633745,26.8567 33.304467,29.76221 6.005461,1.37707 6.90436,2.0596 2.898406,2.20073 -3.193784,0.11254 -10.49996,-2.30888 -16.235943,-5.3809 z m 39.610046,3.13343 c 13.564619,-3.10173 24.078759,-12.59902 24.620449,-22.23929 l 0.46057,-8.19606 1.15073,7.26653 c 0.63293,3.99655 -0.3045,9.40952 -2.08306,12.02886 -4.05704,5.9747 -19.710612,13.63842 -27.327219,13.37894 -3.796409,-0.12922 -2.714483,-0.89142 3.178554,-2.23898 z m 45.696039,-18.29751 c -5.67556,-3.92756 -12.22469,-10.30653 -14.55362,-14.17558 -4.22063,-7.01174 -4.21807,-7.01619 0.78636,-1.36442 11.30034,12.76199 24.06736,20.41285 34.06303,20.41285 11.46283,0 28.76905,-10.71459 34.73431,-21.50473 2.08177,-3.76555 3.83088,-5.31551 3.88692,-3.44428 0.17481,5.83666 -10.91215,17.98305 -20.71386,22.69319 -13.8821,6.67092 -25.97884,5.84225 -38.20314,-2.61703 z m -74.734838,-4.58032 c -16.157004,-10.0167 -21.427561,-36.63115 -10.14297,-51.21834 11.190113,-14.46509 20.970586,-8.87628 36.051489,20.60066 11.744237,22.95511 12.231607,27.25434 3.628009,32.00395 -8.929238,4.9293 -20.202922,4.40018 -29.536528,-1.38627 z m 27.791947,-1.10474 c 7.067469,-5.04105 6.612729,-8.10092 -4.191102,-28.20145 -12.646202,-23.52814 -16.732377,-27.96927 -24.049859,-26.13879 -18.258583,4.56739 -16.183263,44.25532 2.863983,54.77023 7.96675,4.39799 18.86709,4.21328 25.376978,-0.43012 z m 50.630361,-11.55599 c -5.35388,-4.77996 -28.10133,-40.24792 -28.10133,-43.81583 0,-1.38807 6.58237,7.8393 14.62751,20.50524 9.35436,14.72716 16.87558,23.74334 20.86357,25.01061 4.21667,1.33991 4.7497,2.02817 1.64604,2.12537 -2.52451,0.0791 -6.59062,-1.64235 -9.03579,-3.82539 z m 21.87092,-2.99977 c 13.18048,-8.17137 9.26308,-25.57406 -8.70763,-38.6829 -15.02431,-10.95948 -30.11293,-14.20696 -38.17105,-8.21542 -3.07775,2.28843 -3.54988,2.17906 -2.44845,-0.56705 0.96091,-2.39574 5.24033,-3.36411 14.46694,-3.27353 23.00792,0.22567 45.32034,19.10104 45.32034,38.33863 0,7.96976 -7.89026,17.10109 -14.77674,17.10109 -1.79621,0 0.14625,-2.11536 4.31659,-4.70082 z m -51.69662,-5.73707 c 0.77055,-1.58268 0.49621,-3.19867 -0.60968,-3.59118 -2.93852,-1.04283 -23.5776,-36.6217 -23.497241,-40.50593 0.03753,-1.8158 3.076545,2.46272 6.753295,9.50784 3.676744,7.0451 10.657666,18.35723 15.513156,25.13803 6.53673,9.12876 7.73947,12.32885 4.63379,12.32885 -2.30689,0 -3.56389,-1.29492 -2.79332,-2.87761 z m -86.623017,-9.97497 c 0,-6.86097 0.539446,-9.66773 1.198838,-6.23727 0.65936,3.43051 0.65936,9.04402 0,12.47453 -0.659359,3.43053 -1.198838,0.62365 -1.198838,-6.23726 z m 172.256037,6.80433 c 0,-3.11863 0.65316,-4.39446 1.45148,-2.83518 0.79829,1.55935 0.79829,4.11093 0,5.67028 -0.79828,1.55929 -1.45148,0.28354 -1.45148,-2.8351 z m -2.99829,-9.88896 c -0.66263,-8.37441 -18.88832,-31.42918 -32.43414,-41.02797 -7.61201,-5.39402 -19.36696,-11.96355 -26.12209,-14.59889 -6.75514,-2.63535 -10.26938,-4.79243 -7.80944,-4.79339 6.97542,-0.003 29.40168,12.06204 42.71852,22.9816 13.74931,11.27419 27.34355,31.42005 25.3328,37.54171 -1.27778,3.89021 -1.37012,3.88456 -1.68565,-0.10288 z M 23.861045,163.15019 c -0.09764,-2.03075 1.87341,-7.56098 4.380149,-12.28951 3.573085,-6.73997 3.860656,-9.80305 1.331118,-14.17867 -1.774616,-3.06971 -2.704914,-5.99251 -2.067327,-6.49502 0.637579,-0.50276 2.756541,2.12557 4.70876,5.8402 1.952226,3.71462 5.687723,7.20121 8.30112,7.74795 3.470335,0.72606 3.118688,1.065 -1.30406,1.25718 -4.55452,0.19801 -7.185634,2.93378 -10.613942,11.03656 -2.507041,5.92539 -4.638158,9.11198 -4.735818,7.08131 z M 58.935714,143.732 c 2.769823,-0.57028 7.302253,-0.57028 10.072075,0 2.769813,0.57028 0.503635,1.03723 -5.036041,1.03723 -5.539636,0 -7.805847,-0.46676 -5.036034,-1.03723 z m 16.546976,-1.59606 c 0,-0.48992 2.009728,-1.49923 4.466063,-2.24214 2.560968,-0.77453 3.716074,-0.39411 2.707899,0.89142 -1.689976,2.15515 -7.173962,3.18768 -7.173962,1.35072 z M 64.887215,128.85176 C 56.881383,122.1811 38.227894,85.446188 41.526377,82.846464 c 0.64386,-0.507272 4.731935,7.69593 9.084528,18.229866 4.352602,10.53393 9.079105,19.72017 10.503346,20.41395 2.964937,1.44426 15.312963,14.73274 13.690041,14.73274 -0.588634,0 -5.051353,-3.31703 -9.917077,-7.37126 z m 21.75751,3.40211 c 1.502235,-2.18305 6.950663,-7.03109 12.107613,-10.77343 8.619072,-6.25482 8.473672,-5.93425 -1.80061,3.96917 -11.786469,11.36099 -14.821365,13.36453 -10.307003,6.80426 z M 22.649393,122.13739 c -0.970783,-2.85619 -1.652656,-7.23445 -1.515278,-9.72932 0.13737,-2.49494 1.43505,-0.55485 2.883714,4.31145 2.805617,9.42444 1.606657,14.17129 -1.368436,5.41787 z M 101.40349,102.57634 C 90.401066,86.306745 67.753522,68.365289 46.705351,59.244373 27.355567,50.859356 29.800195,50.072737 50.060879,58.164585 c 20.985873,8.381486 40.770373,23.931581 51.820891,40.729924 5.25758,7.992251 11.50473,14.949401 13.88252,15.460401 3.38883,0.72824 3.27124,0.98593 -0.54401,1.19218 -3.15268,0.17037 -8.01993,-4.39883 -13.81679,-12.97075 z M 18.849101,93.129267 c 0,-8.108432 0.522316,-11.425542 1.160653,-7.37132 0.638394,4.054223 0.638394,10.688366 0,14.742593 -0.638395,4.0542 -1.160653,0.73717 -1.160653,-7.371273 z m 59.511317,7.071983 c 0,-1.247471 1.294979,-2.898886 2.877735,-3.669877 1.582755,-0.770938 2.877736,-0.381252 2.877736,0.866339 0,1.247462 -1.294981,2.898878 -2.877736,3.669878 -1.582756,0.77092 -2.877735,0.38125 -2.877735,-0.86634 z M 56.797786,97.691393 c -1.008175,-1.285653 0.146914,-1.665939 2.7079,-0.891344 4.985432,1.507781 5.897587,3.133482 1.75817,3.133482 -1.489345,0 -3.499072,-1.008943 -4.46607,-2.242138 z m 8.151164,-3.558449 c -0.945943,-1.942856 -3.562521,-2.975208 -5.814612,-2.294094 -2.268152,0.686007 -3.310434,0.238532 -2.336552,-1.003663 2.771266,-3.534088 6.703584,-2.63664 10.051697,2.29408 1.694128,2.494873 2.346537,4.536155 1.449799,4.536155 -0.896738,0 -2.404381,-1.589622 -3.350332,-3.532478 z m -9.6104,-15.503677 c 0,-0.489915 1.942469,-1.478861 4.316603,-2.196878 2.374125,-0.718082 4.316595,-0.316961 4.316595,0.891357 0,1.208306 -1.94247,2.19693 -4.316595,2.19693 -2.374134,0 -4.316603,-0.401185 -4.316603,-0.891409 z M 21.366763,71.582364 c 0.05873,-3.742399 0.703572,-4.998746 1.433231,-2.791966 0.729593,2.206767 0.681629,5.268696 -0.106616,6.804264 -0.788245,1.535554 -1.385257,-0.270028 -1.326606,-4.012298 z m 2.543911,-11.529506 c 0.138105,-2.642228 0.819978,-3.179656 1.738627,-1.370327 0.831291,1.637264 0.729022,3.593563 -0.227183,4.347196 -0.956245,0.753697 -1.63639,-0.585701 -1.511444,-2.976869 z"
       id="path1247" />
    <path
       style="fill:#400600;stroke-width:2.55479"
       d="m 151.07797,220.83891 c 2.79993,-0.57477 6.68487,-0.53748 8.63318,0.0842 1.94833,0.62107 -0.34251,1.09182 -5.09079,1.04559 -4.74826,-0.0449 -6.34234,-0.55484 -3.54239,-1.12962 z m -21.13614,-9.20166 -6.97654,-6.23727 7.91376,5.49855 c 7.39662,5.13928 9.23346,6.97592 6.97654,6.97592 -0.51546,0 -4.07668,-2.80674 -7.91376,-6.2372 z m -99.182346,1.55015 c -1.043269,-1.33046 -1.279677,-2.90544 -0.525333,-3.49995 0.75431,-0.5947 2.138345,0.49377 3.075584,2.41901 1.945871,3.99661 0.287301,4.69958 -2.550243,1.08094 z m 39.741941,0.84718 c 2.799939,-0.57477 6.68488,-0.53748 8.6332,0.0842 1.948318,0.62108 -0.342528,1.09175 -5.090802,1.04553 -4.748267,-0.0449 -6.342345,-0.5542 -3.542398,-1.12962 z m 105.701925,0.71546 c 0,-0.47127 2.26623,-2.25713 5.03604,-3.96917 4.56426,-2.82122 4.66603,-2.74098 1.08651,0.85638 -3.75939,3.77801 -6.12255,4.97952 -6.12255,3.11279 z m -119.699352,-6.51495 -5.482044,-5.10322 6.474902,4.32071 c 6.084808,4.06039 7.784955,5.88572 5.482044,5.88572 -0.546054,0 -3.459779,-2.29646 -6.474902,-5.10321 z m 56.616412,-0.75602 c 0.13811,-2.64222 0.81998,-3.17965 1.73863,-1.37034 0.83129,1.63728 0.72903,3.5935 -0.22718,4.34721 -0.95625,0.75364 -1.6364,-0.58571 -1.51145,-2.97687 z m -20.144132,-4.53621 c 0.1381,-2.64223 0.81998,-3.17966 1.73863,-1.37034 0.8313,1.63734 0.72903,3.59356 -0.22718,4.3472 -0.95624,0.7537 -1.636397,-0.58571 -1.51144,-2.97686 z m 60.205212,-4.10451 c 0,-0.49054 2.00973,-1.49923 4.46606,-2.24214 2.56097,-0.77453 3.71609,-0.3941 2.7079,0.89142 -1.68996,2.15515 -7.17396,3.18768 -7.17396,1.35072 z m -25.8996,-14.98528 c -1.69413,-2.49494 -2.43274,-4.53622 -1.64137,-4.53622 0.79135,0 2.82498,2.04128 4.5191,4.53622 1.69413,2.49486 2.43274,4.53616 1.64137,4.53616 -0.79135,0 -2.82498,-2.0413 -4.5191,-4.53616 z M 21.366763,178.18279 c 0.05873,-3.74233 0.703572,-4.99873 1.433231,-2.79196 0.729593,2.20684 0.681629,5.26877 -0.106616,6.80432 -0.788245,1.53557 -1.385257,-0.27002 -1.326606,-4.01236 z m 146.430597,-0.18902 c 0.1381,-2.64223 0.81997,-3.17964 1.73862,-1.37033 0.83129,1.63728 0.72902,3.5935 -0.22719,4.3472 -0.95625,0.75364 -1.63639,-0.5857 -1.51143,-2.97687 z M 114.6876,164.4865 c -2.77696,-5.70356 -1.95775,-7.17523 1.43465,-2.57734 1.67971,2.27659 2.44779,4.61709 1.70687,5.20105 -0.74093,0.58379 -2.1546,-0.59663 -3.14152,-2.62371 z M 60.554444,152.8184 c 2.07736,-0.65521 4.559407,-0.57479 5.515652,0.17936 0.956247,0.75371 -0.743378,1.28971 -3.777017,1.19128 -3.352397,-0.10867 -4.034302,-0.64627 -1.738635,-1.37032 z M 161.81469,137.35702 c -6.9901,-5.61351 -12.06178,-10.20644 -11.27039,-10.20644 0.79133,0 7.15803,4.59293 14.14813,10.20644 6.9901,5.61357 12.06178,10.20643 11.2704,10.20643 -0.79134,0 -7.15804,-4.59286 -14.14814,-10.20643 z M 64.887215,128.8517 C 56.881383,122.18104 38.227894,85.446124 41.526377,82.8464 c 0.64386,-0.507272 4.731935,7.69593 9.084528,18.22987 4.352602,10.53393 9.079105,19.72016 10.503346,20.41395 2.964937,1.44426 15.312963,14.73274 13.690041,14.73274 -0.588634,0 -5.051353,-3.31704 -9.917077,-7.37126 z m 13.473203,-28.65051 c 0,-1.247476 1.294979,-2.898891 2.877735,-3.669881 1.582755,-0.770938 2.877736,-0.381252 2.877736,0.866339 0,1.247462 -1.294981,2.898872 -2.877736,3.669872 -1.582756,0.77093 -2.877735,0.38126 -2.877735,-0.86633 z M 56.797786,97.691393 c -1.008175,-1.285653 0.146914,-1.665939 2.7079,-0.891344 4.985432,1.507781 5.897587,3.133482 1.75817,3.133482 -1.489345,0 -3.499072,-1.008943 -4.46607,-2.242138 z m 8.151164,-3.558449 c -0.945943,-1.942856 -3.562521,-2.975208 -5.814612,-2.294094 -2.268152,0.686007 -3.310434,0.238532 -2.336552,-1.003663 2.771266,-3.534088 6.703584,-2.63664 10.051697,2.29408 1.694128,2.494873 2.346537,4.536155 1.449799,4.536155 -0.896738,0 -2.404381,-1.589622 -3.350332,-3.532478 z M 75.48269,76.118518 C 68.492587,70.50501 63.420906,65.912084 64.212283,65.912084 c 0.791346,0 7.15804,4.592926 14.148135,10.206434 6.990103,5.61356 12.061783,10.206421 11.270406,10.206421 -0.791346,0 -7.158038,-4.592861 -14.148134,-10.206421 z m -20.14414,2.510749 c 0,-0.489915 1.942469,-1.478861 4.316603,-2.196878 2.374125,-0.718082 4.316595,-0.316961 4.316595,0.891357 0,1.208306 -1.94247,2.19693 -4.316595,2.19693 -2.374134,0 -4.316603,-0.401185 -4.316603,-0.891409 z"
       id="path1245" />
    <path
       style="fill:#141212;stroke-width:2.55479"
       d="M 64.887215,128.85176 C 56.881383,122.1811 38.227894,85.446188 41.526377,82.846464 c 0.64386,-0.507272 4.731935,7.69593 9.084528,18.229866 4.352602,10.53393 9.079105,19.72017 10.503346,20.41395 2.964937,1.44426 15.312963,14.73274 13.690041,14.73274 -0.588634,0 -5.051353,-3.31703 -9.917077,-7.37126 z m 13.473203,-28.65051 c 0,-1.247471 1.294979,-2.898886 2.877735,-3.669877 1.582755,-0.770938 2.877736,-0.381252 2.877736,0.866339 0,1.247462 -1.294981,2.898878 -2.877736,3.669878 -1.582756,0.77092 -2.877735,0.38125 -2.877735,-0.86634 z M 56.797786,97.691393 c -1.008175,-1.285653 0.146914,-1.665939 2.7079,-0.891344 4.985432,1.507781 5.897587,3.133482 1.75817,3.133482 -1.489345,0 -3.499072,-1.008943 -4.46607,-2.242138 z m 8.151164,-3.558449 c -0.945943,-1.942856 -3.562521,-2.975208 -5.814612,-2.294094 -2.268152,0.686007 -3.310434,0.238532 -2.336552,-1.003663 2.771266,-3.534088 6.703584,-2.63664 10.051697,2.29408 1.694128,2.494873 2.346537,4.536155 1.449799,4.536155 -0.896738,0 -2.404381,-1.589622 -3.350332,-3.532478 z M 75.48269,76.118518 C 68.492587,70.50501 63.420906,65.912084 64.212283,65.912084 c 0.791346,0 7.15804,4.592926 14.148135,10.206434 6.990103,5.61356 12.061783,10.206421 11.270406,10.206421 -0.791346,0 -7.158038,-4.592861 -14.148134,-10.206421 z m -20.14414,2.510749 c 0,-0.489915 1.942469,-1.478861 4.316603,-2.196878 2.374125,-0.718082 4.316595,-0.316961 4.316595,0.891357 0,1.208306 -1.94247,2.19693 -4.316595,2.19693 -2.374134,0 -4.316603,-0.401185 -4.316603,-0.891409 z"
       id="path1243" />
  </g>
</svg>
