<?xml version="1.0" encoding="UTF-8" standalone="no"?>
<svg
   width="81.953125"
   zoomAndPan="magnify"
   viewBox="0 0 61.43206 224.18749"
   height="298.91666"
   preserveAspectRatio="xMidYMid meet"
   version="1.0"
   id="svg18"
   sodipodi:docname="vs.svg"
   inkscape:version="1.1.2 (0a00cf5339, 2022-02-04, custom)"
   xmlns:inkscape="http://www.inkscape.org/namespaces/inkscape"
   xmlns:sodipodi="http://sodipodi.sourceforge.net/DTD/sodipodi-0.dtd"
   xmlns="http://www.w3.org/2000/svg"
   xmlns:svg="http://www.w3.org/2000/svg">
  <sodipodi:namedview
     id="namedview20"
     pagecolor="#ffffff"
     bordercolor="#666666"
     borderopacity="1.0"
     inkscape:pageshadow="2"
     inkscape:pageopacity="0.0"
     inkscape:pagecheckerboard="0"
     showgrid="false"
     width="299px"
     inkscape:zoom="0.865"
     inkscape:cx="-254.91329"
     inkscape:cy="-154.91329"
     inkscape:window-width="1366"
     inkscape:window-height="695"
     inkscape:window-x="0"
     inkscape:window-y="0"
     inkscape:window-maximized="1"
     inkscape:current-layer="svg18"
     fit-margin-top="0"
     fit-margin-left="0"
     fit-margin-right="0"
     fit-margin-bottom="0" />
  <defs
     id="defs8">
    <clipPath
       id="id1">
      <path
         d="m 89,0.40625 h 54.125 V 126 H 89 Z m 0,0"
         clip-rule="nonzero"
         id="path2" />
    </clipPath>
    <clipPath
       id="id2">
      <path
         d="M 81.660156,96 H 136 V 224.9375 H 81.660156 Z m 0,0"
         clip-rule="nonzero"
         id="path5" />
    </clipPath>
  </defs>
  <g
     clip-path="url(#id1)"
     id="g12"
     transform="translate(-81.719361,-0.40625)">
    <path
       fill="#45bffc"
       d="m 102.30078,120.22266 h -0.0234 L 95.300781,98.082031 c -0.07422,-0.21875 -0.152343,-0.40625 -0.234375,-0.554687 -0.07813,-0.148438 -0.222656,-0.257813 -0.429687,-0.332032 -0.207031,-0.07422 -0.5,-0.128906 -0.886719,-0.15625 -0.382812,-0.02734 -0.914062,-0.04297 -1.59375,-0.04297 -0.800781,0 -1.417969,0.01953 -1.859375,0.05469 -0.445313,0.03906 -0.757813,0.132813 -0.945313,0.289063 -0.183593,0.152344 -0.257812,0.386718 -0.222656,0.699218 0.03906,0.308594 0.148438,0.730469 0.324219,1.265626 l 8.527344,25.441401 c 0.05859,0.19141 0.121093,0.35547 0.1875,0.47657 0.06641,0.1289 0.164062,0.23437 0.289062,0.32422 0.125,0.0898 0.28125,0.16406 0.464844,0.22265 0.183594,0.0586 0.421875,0.10156 0.71875,0.13281 0.296875,0.0273 0.656255,0.0469 1.074215,0.0547 0.42188,0.008 0.92969,0.0117 1.51954,0.0117 0.73828,0 1.33593,-0.0117 1.79687,-0.0352 0.45313,-0.0195 0.81641,-0.0703 1.08203,-0.15234 0.26563,-0.082 0.45703,-0.20312 0.57422,-0.35547 0.11719,-0.15625 0.21875,-0.35937 0.28906,-0.60937 L 143.14453,0.40625 102.30078,120.22266"
       fill-opacity="1"
       fill-rule="nonzero"
       id="path10" />
  </g>
  <g
     clip-path="url(#id2)"
     id="g16"
     transform="translate(-81.719361,-0.40625)">
    <path
       fill="#fd4760"
       d="m 134.64062,114.22266 c -0.35546,-0.85157 -0.82031,-1.58985 -1.39453,-2.21875 -0.57812,-0.62891 -1.23437,-1.17188 -1.97265,-1.6211 -0.73828,-0.44922 -1.49219,-0.85547 -2.25782,-1.20703 -0.76953,-0.35547 -1.52343,-0.69531 -2.26171,-1.01172 -0.73828,-0.3164 -1.39844,-0.65625 -1.98047,-1.01953 -0.58203,-0.35937 -1.05078,-0.77734 -1.39844,-1.24219 -0.34766,-0.46484 -0.51953,-1.01953 -0.51953,-1.65234 0,-0.42969 0.0781,-0.83594 0.23437,-1.21875 0.15625,-0.38672 0.39063,-0.71484 0.70704,-0.98828 0.3164,-0.27344 0.71093,-0.48828 1.1875,-0.64453 0.47265,-0.15625 1.02343,-0.23047 1.66015,-0.23047 0.8086,0 1.55859,0.0977 2.23438,0.29687 0.67968,0.19922 1.28125,0.42188 1.79687,0.66407 0.51563,0.24609 0.95313,0.47265 1.30469,0.67968 0.35547,0.20704 0.61328,0.3125 0.77734,0.3125 0.16016,0 0.29297,-0.0469 0.38672,-0.13671 0.0937,-0.0859 0.17188,-0.23047 0.22266,-0.42188 0.0508,-0.19141 0.0859,-0.43359 0.10937,-0.73047 0.0234,-0.29687 0.0352,-0.66015 0.0352,-1.08594 0,-0.38671 -0.0117,-0.70703 -0.0234,-0.96484 -0.0156,-0.261719 -0.0391,-0.476562 -0.0742,-0.644531 -0.0391,-0.171875 -0.082,-0.308594 -0.13672,-0.410157 -0.0508,-0.101562 -0.15234,-0.230468 -0.29687,-0.378906 -0.14844,-0.144531 -0.44922,-0.332031 -0.91016,-0.554687 -0.45703,-0.21875 -0.98047,-0.421875 -1.57422,-0.597657 -0.58984,-0.179687 -1.22265,-0.316406 -1.90234,-0.421874 -0.67969,-0.101563 -1.35937,-0.15625 -2.03906,-0.15625 -1.3125,0 -2.5586,0.171874 -3.73438,0.511718 -1.17187,0.339844 -2.1875,0.851563 -3.05468,1.542969 -0.86329,0.683594 -1.55079,1.550785 -2.0586,2.593755 -0.51172,1.04296 -0.76562,2.2539 -0.76562,3.625 0,1.19921 0.17968,2.23046 0.53125,3.08593 0.35547,0.85547 0.82031,1.60157 1.38672,2.23047 0.5664,0.625 1.21484,1.16797 1.9375,1.61719 0.72265,0.45312 1.46875,0.85547 2.23828,1.21094 0.76562,0.35547 1.51172,0.6914 2.23437,1.00781 0.72266,0.32031 1.3711,0.66016 1.94141,1.01953 0.5664,0.36328 1.02734,0.77734 1.38281,1.24219 0.35547,0.46875 0.53125,1.02734 0.53125,1.67578 0,0.5625 -0.10156,1.07422 -0.3125,1.53125 -0.20703,0.45703 -0.50391,0.84375 -0.89453,1.15234 -0.39453,0.3125 -0.86719,0.55469 -1.42969,0.72266 -0.55859,0.17187 -1.19531,0.25391 -1.90234,0.25391 -1.07813,0 -2.02735,-0.1211 -2.84766,-0.36719 -0.82422,-0.24219 -1.52344,-0.51172 -2.11719,-0.8086 -0.008,-0.004 -0.0195,-0.0117 -0.0312,-0.0117 -0.57812,-0.29297 -1.04687,-0.5586 -1.41796,-0.79688 -0.004,0 -0.008,-0.004 -0.0117,-0.008 -2.1875,-1.19922 -3.96094,-0.17578 -4.74219,2.54297 L 81.660156,224.59375 117.99219,124.83203 c 0.42578,0.23438 0.94531,0.46485 1.5625,0.67969 0.65234,0.23047 1.39844,0.42578 2.25,0.58984 0.84765,0.16016 1.76953,0.24219 2.75781,0.24219 1.46094,0 2.83594,-0.19141 4.12109,-0.57422 1.28516,-0.38672 2.40625,-0.96094 3.36328,-1.71875 0.96094,-0.76172 1.72266,-1.71484 2.28125,-2.85156 0.5625,-1.14063 0.84375,-2.46484 0.84375,-3.96875 0,-1.15625 -0.17968,-2.15625 -0.53125,-3.00781"
       fill-opacity="1"
       fill-rule="nonzero"
       id="path14" />
  </g>
</svg>
